<svg xmlns="http://www.w3.org/2000/svg" width="498" height="175" viewBox="0 0 498.2 175.4"><path d="M154.8 122.6c-4.4 2.9-10.9 7.3-19.8 13.3 0.4 0.4 0.8 0.6 1.2 0.6 0.8 0 2.3-0.7 4.5-2 -0.4 0.5-0.5 1-0.2 1.2 0.7-0.3 1.6-0.7 2.9-1.2 -1.4 1.1-2.9 2-4.5 2.9l-1.4 1.6c-2.2 1-5.4 2.7-9.6 5.1 -0.3 0.1-0.3 0.3 0 0.6 7.5-3.5 13.6-6.9 18.4-10 -1.1 1.2-2.7 2.9-4.9 4.9 -1.4 0.7-3.5 1.8-6.5 3.5 -2.2 1.9-5.4 4.5-9.6 7.8 -1.1 0.7-3.6 1.7-7.5 3.1 -0.5 0.8-3.5 2.4-9 4.9 -3.3 1.6-5.1 2.4-5.5 2.2 -0.3 0-0.7-0.1-1.3-0.4 -0.6-0.3-1.1-0.4-1.3-0.4 -1.9 0-4.8 0.4-8.6 1.1 -3.8 0.7-6.7 1.1-8.6 0.9 1.1 0 0-0.1-3.2-0.4 -3.2-0.3-5-0.4-5.4-0.4 0.3 0.3 1.3 0.9 3.1 1.8 -3.4-0.1-5.4-0.3-5.9-0.6 -2.3-1.1-6.3-3.9-11.8-8.4 -1.6-1.6-2.5-2.6-2.7-2.9l-4.3 0.4c-0.4 0.3-0.8 0.6-1.2 1L51 152c-0.1 0.1-0.2 0.4-0.2 0.7 0 0.3-0.2 0.4-0.6 0.3h-1.4c-0.4-0.1-0.7-0.2-1-0.2 0.8 0 2.2-0.4 4.1-1.1 1.9-0.7 3.4-1.1 4.5-1.1 0.4 0.1 0.6 0 0.6-0.4 0-0.7-0.9-1.9-2.5-3.6 -1.7-1.7-2.9-2.6-3.6-2.8 -0.4 0-1.1 0.3-2 0.8 -1 0.5-1.6 0.8-2 0.8 -3.4-0.1-8.3 0.1-14.7 0.8 0 0.1 0.1 0.4 0.4 0.7 0.3 0.3 0.4 0.7 0.4 1.1 -1.2-1.5-2.4-2.2-3.7-2.2 -0.4 0-0.6 0.1-0.6 0.2 0 0.1 0.1 0.3 0.4 0.6 -0.7-0.4-2.3-1-4.9-1.8 -0.1 0.1-0.3 0.2-0.6 0.3 -0.3 0.1-0.5 0.2-0.6 0.3 2.6 2.2 4.7 3.3 6.3 3.5l4.7 0.2c0.1-0.1 0.2-0.3 0.2-0.4 0-0.1-0.2-0.2-0.6-0.2 1 0 2 0.3 3.3 1 -0.8 0-2 0.1-3.6 0.4 -1.6 0.3-2.8 0.4-3.6 0.4 -0.4 0-1.4-0.5-2.9-1.4 -1.5-0.9-2.4-1.4-2.7-1.4 -0.4 0-0.6 0.1-0.5 0.2 0.1 0.1-0.1 0.2-0.5 0.2 -2.3-0.1-6.5-2.7-12.4-7.5 -0.7-1.1-1.9-3.1-3.7-5.9 -3.5-5.6-5.6-11.8-6.3-18.8C0.2 111.7 0 108.9 0 107.1c0-0.1 0.2-0.5 0.5-1 0.3-0.5 0.4-0.9 0.3-1.2 -0.1-5.3 1.7-11.8 5.6-19.5 3.9-7.7 8.1-12.5 12.8-14.6 0.8-0.1 1.8-0.4 2.9-0.8 3.4-2.3 5.3-3.3 5.7-3.1 -1.2 0.4-2.5 1.3-3.9 2.7 1.1 0.8 2.2 1.2 3.5 1.2 0.8 0 1.7-0.6 2.6-1.7 0.9-1.2 1.3-2.1 1.1-3 0.5 0 0.9 0.1 1 0.4 0.4 0 0.7-0.4 0.8-1.2 0 0.3 0.3 0.4 1 0.4 0.1 0 1.6-0.8 4.5-2.3 2.9-1.6 4.6-2.5 5.3-2.8 1.6-0.7 5.6-1.4 11.8-2.2 3.9-0.5 5.7-0.8 5.3-0.8 0.4 0 1 0.3 1.8 0.8 0.8 0.5 1.4 0.9 1.6 1 0.4 0 1-0.1 1.8-0.4 0.8-0.3 1.4-0.4 1.6-0.4 0.3 0 0.7 0.1 1.3 0.3 0.6 0.2 1.1 0.3 1.3 0.3 0.4 0 0.8-0.1 1.3-0.4 0.5-0.3 0.8-0.4 1.1-0.4 0.3 0 0.7 0.3 1.4 0.8 0.7 0.5 1.2 0.8 1.4 0.8 2.2 0.5 3.7 0.8 4.7 0.8 0.3 0 0.6-0.1 0.9-0.4 0.3-0.3 0.6-0.4 0.9-0.4 0.4 0 0.8 0.1 1.2 0.2l0.6 0.4c-0.7 0-1.2 0.2-1.4 0.6l-0.2 0.4c1.5 0.1 3.9 0.6 7.3 1.4l-0.2 4.5L88.7 68.3c-0.4 0.4-0.6 0.8-0.6 1.2 0.1 0 0.4 0.2 0.8 0.6 -0.4-0.1-0.9-0.4-1.4-0.8 -0.7 0.7-1.8 1.8-3.3 3.3l0.2 1.4c0.4-0.1 1-0.5 1.8-1.2 -0.1 1.1 0.1 1.6 0.6 1.6 0.4 0.1 0.7 0.1 1 0h0.6c-0.3 0.4-0.9 2-1.8 4.7 0 0.4-1.1 2-3.3 4.9v1.8c1.2-2 3.4-4.9 6.5-8.6 -2.3 5.7-4.3 10.1-5.9 13.3 -0.1 0.1-0.1 0.3 0.2 0.6 0.3-0.1 0.6-0.4 1-0.8 1.9-4.5 5.4-11 10.4-19.6h0.8c-0.1 0.4-0.4 1.1-0.8 2l0.4 0.8 1.4-1.2c-0.8 1.4-1.8 3.4-3.1 6.1 0.1 0.3 0.3 0.4 0.6 0.4 0-0.8-0.1-1.2-0.4-1.2 -0.4 0-1.4 1.2-2.9 3.5L85.5 92.8c0.1 0.3 0.1 0.7 0 1.2 -0.1 0.3-0.3 0.7-0.4 1.4l-0.8-0.8c-2.6 3-4.1 7.3-4.7 13.1l-1.2 12c-0.3 0.8-0.4 1.5-0.4 2 0 0.8 0.1 1.5 0.4 2 0.5-0.4 0.8-1.1 0.8-2 0.5-1.8 1.2-4.3 1.8-7.5 0.3-1.9 0.7-4.8 1.2-8.8 0.1-0.4 1.2-2.4 3.1-5.9 0.4-0.8 1.3-2.9 2.7-6.3 1-2.3 2.2-4.2 3.9-5.7l0.6 1.8c-2.3 3.5-4.9 11.5-7.8 23.9l0.8 0.8c1.1-6.4 3.5-12 7.3-16.7 -1.1 1.9-2.4 4.8-3.9 8.8 -1.5 5.6-2.2 10.1-2.2 13.5 -0.1 0.5 0.1 0.8 0.6 0.8 -0.7 0 1.8-1.1 7.5-3.3v1.8c0.3 0.1 0.6 0.2 1 0.2 1.4 0 5.2-1.7 11.4-5.1l-9.6 6.3c0.4 0.3 0.7 0.4 1 0.4 0.5 0 1.1-0.1 1.6-0.4 -0.3 0.3-0.7 0.8-1.4 1.6l-1.4-1.4 -6.9 5.3c0.5 0.1 1.4 0.5 2.7 1 -0.5 0-2.6 0.7-6.1 2 0 0.8-0.2 1.9-0.5 3.3 -0.3 1.4-0.5 2.4-0.5 3.3 -0.1 1.4 0.6 2.6 2.2 3.8 1.6 1.2 3.2 1.8 4.7 1.9 0.4 0 1-0.1 1.7-0.2 0.7-0.1 1.3-0.2 1.7-0.2l16.3-6.7c-0.3 0.3-1.7 1-4.3 2 -1.8 0.8-2.9 1.9-3.5 3.3 0.1 0 0.3 0.1 0.5 0.2 0.2 0.1 0.4 0.2 0.5 0.2l17.1-9c1 0.3 2.4 0.5 4.5 0.6 -0.7-0.1 0.6-0.7 3.9-1.6l0.6-0.2c1.4-0.3 3.6-1 6.7-2.2 6.3-3.9 9.7-6 10.2-6.3 0.4 0 0.6 0.1 0.5 0.2 -0.1 0.1 0 0.2 0.3 0.2 0.7 0.1 1.4-0.1 2-0.6 -1 0.8-1.6 1.8-2 3.1 -1.9 0.4-4.1 1.6-6.7 3.5 -0.1 0.1-0.1 0.3 0.2 0.6C144.6 127.4 148.4 125.6 154.8 122.6zM4.9 125.3c-1-3-1.4-4.6-1.4-4.9 0-1.2 0.5-1.8 1.6-1.6L4.9 125.3zM4.3 118.1H3.7v-3.1h0.6V118.1zM21.6 146.1c-1.5-0.7-3.8-2.2-6.9-4.7l0.2-0.6 -0.8 0.6 -2.9-3.1C13.8 139.8 17.3 142.4 21.6 146.1zM34.5 153.6c-0.5 1.8-1.8 2.6-3.7 2.4 -1.5 0-4-1.2-7.5-3.7 -2.6-1.8-4.5-3.1-5.7-4.1 2.9 1.6 7.2 3.9 13.1 6.7 0.1-0.1 0.3-0.2 0.5-0.3 0.2-0.1 0.4-0.2 0.5-0.3 -0.7-0.9-1.9-2-3.7-3.3 3.4 1.8 5.2 2.7 5.5 2.9C33.9 154 34.2 153.9 34.5 153.6zM74.3 69.4h-3.5l0.8 1c-0.1 0.1-0.5 0.2-1 0.2 -0.5-0.5-1-0.9-1.2-1 0.3 0.4 0.4 0.7 0.4 1 0 0.3-0.2 0.5-0.6 0.6 -2.4-0.5-3.5-0.8-3.1-0.8 -1.4 0-3 0.6-4.9 1.8 -6.5 4.2-10.7 7.8-12.4 10.6 0.4 0 1 0.3 1.6 1 1.1-1.8 3.3-3.5 6.5-5.3 3.3-1.8 6-2.6 8.2-2.4 0.5 0 0.9 0.1 1 0.2 -4.8 1.2-9.6 3.7-14.5 7.3 -0.7 0.3-1.5 0.5-2.4 0.8 -1.8 2.6-4.3 6.1-7.5 10.6 -0.1-0.9 1-3.5 3.5-7.5 -3.5 5.2-5.9 8.7-7.1 10.6 -2.3 3.8-3.5 6.8-3.5 9 -2 5.3-3.1 9.4-3.3 12.2 0 1.6 0.5 3.7 1.4 6.3 1.4 3.7 3.2 5.5 5.5 5.5 1.1 0.1 3.1-0.4 6.1-1.6 3-1.2 5-1.8 6.1-1.8 0.4 0 0.6 0.1 0.5 0.2 -0.1 0.1 0.1 0.3 0.5 0.4 0.4 0 1-0.2 1.6-0.7 0.7-0.5 1.2-0.7 1.4-0.7 0.5-1.1 0.9-3.2 1-6.3 1.1-16.9 4.7-30.3 10.8-40.4 -0.8 0-1.4 0.3-1.8 0.8v-1.6c0 0.3-0.3 0.7-0.8 1.2l0.2-2.9c1.2 0 2-0.1 2.4-0.4 0.4-0.8 0.9-2 1.4-3.5h1.6c0.1 0.3 0.2 0.6 0.2 1l-0.4 0.8L74.3 69.4zM40.6 152.2c-0.4 0.4-0.6 0.8-0.6 1 0 0.1 0.1 0.3 0.2 0.4 -2.6-0.1-4.6-0.4-6.1-0.8 0.1 0 0.3-0.2 0.5-0.5 0.2-0.3 0.4-0.5 0.5-0.5h1.8C37.3 151.9 38.6 152.1 40.6 152.2zM37.3 109.5l-0.4-0.4 -1.2 1.6 0.6 0.4L37.3 109.5zM44.5 151.8c-0.4 0-1.8-0.4-4.3-1.2 1 0.1 2.2 0.4 3.7 0.8C44.1 151.6 44.3 151.8 44.5 151.8zM49.6 147.9h-4.3v-0.6h4.3V147.9zM54.5 155.7c-0.8 0.3-1.9 0.7-3.3 1.2 -0.3-0.1-0.7-0.5-1.4-1.2 0.1-1.6 1.7-2.4 4.7-2.2 -0.4 0-1.2 0.3-2.4 1l0.8 1C53.8 155.4 54.3 155.5 54.5 155.7zM51.8 147.9l-0.2 0.6 -1.4-0.6v-0.6L51.8 147.9zM55.9 108.5l-0.4 3.5h-0.8l0.4-3.5H55.9zM72.2 67.1l-0.2-0.6 -1 0.6 -0.2 0.6L72.2 67.1zM80.2 64.9c-1.5-0.4-2.8-0.6-3.9-0.6 -1.4-0.1-3.1 0.2-5.3 1 1.1 0.8 1.6 1.5 1.6 2 0.7 0 1.4 0.1 2 0.4 1.2 0.8 1.9 1.2 2 1.2 0.4-0.8 0.9-1.7 1.5-2.7C78.8 65.4 79.5 64.9 80.2 64.9zM77.5 71.2c0.3 0 0.4 0.1 0.4 0.2 -0.1 0.3-0.4 0.7-0.8 1.2l-1.6-1c0.1 0.1 0.5 0.1 1-0.1C77 71.3 77.4 71.2 77.5 71.2zM76.7 139.1v-1.6h-0.8v1.6H76.7zM76.9 136.5v-1.6h-0.8v1.6H76.9zM86.3 65.9c1.1 0.1 0.4 0-2-0.3 -2.4-0.3-3.8-0.5-4.1-0.5 -0.4 1.4-1.2 2.8-2.4 4.3 0.7 0 1.1 0.1 1.2 0.4 -0.5 0.5-0.8 0.9-0.8 1 0.1 0 0.3-0.1 0.6-0.2 0.3-0.1 0.5-0.2 0.8-0.2 0.4 0 0.6 0.2 0.6 0.5 0 0.3 0.1 0.5 0.2 0.5 -0.3 0.3-0.4 0.8-0.4 1.6 0.5-0.3 2.1-0.7 4.7-1.4 -0.3 0-0.5-0.1-0.6-0.4C84.7 70.1 85.5 68.3 86.3 65.9zM79.2 133.8L78.5 132.6l-0.6 0.2 0.6 1H79.2zM84.3 46.5l-0.2 5.5c0 2.3-1 3.7-3.1 4.3 -1.2-1.4-1.8-3.5-1.8-6.5 0.1-3 1.2-4.4 3.1-4.3C82.8 45.5 83.4 45.8 84.3 46.5zM82.2 67.7l-1 1 -0.4-0.6 1.2-0.8L82.2 67.7zM85.5 115.3H84.7l-1 6.1h0.6L85.5 115.3zM89.6 73.2c-0.7 0-1.4-0.3-2.2-1 0.1 0 0.4-0.1 0.8-0.3 0.4-0.2 0.7-0.3 1-0.3 0 0.4 0.1 0.7 0.2 1L89.6 73.2zM92.4 93.8l-3.5 5.1 -0.6-0.4 3.5-5.1L92.4 93.8zM90.4 108.5l-1.2 4.3 -0.8-0.2 1.4-4.1H90.4zM109.3 58.3c0 1-1.9 3.2-5.7 6.7 -1.8-0.5-4.1-1.6-7.1-3.1 -0.3-0.5-0.7-1.4-1.4-2.7 0.3-0.4 0.5-1.2 0.6-2.4 0.1-1.5-0.1-2.2-0.8-2.2 -0.3 0-0.6 0.1-0.9 0.2 -0.3 0.1-0.6 0.1-0.9 0 -1.4 0-2.7-1.4-4.1-4.1 1.9-2.2 3.9-3.2 5.9-3.1 0.3 0 1 0.4 2 1.1 1.1 0.8 1.8 1.1 2.2 1.1 0.5 0.1 1.3 0.1 2.2 0 1-0.1 1.7-0.2 2.2-0.2 1.1 0.1 2.3 1.3 3.7 3.5C108.7 55.4 109.3 57.1 109.3 58.3zM91.2 72.6h-1v-0.6h1V72.6zM97.3 81.4L94.9 84.7l-0.6-0.4 2.4-3.3L97.3 81.4zM96.9 78.5l-1.2 2 -0.6-0.2 1.2-2L96.9 78.5zM99.1 78.1l-1.2 0.8 -0.4-0.4 1.2-1L99.1 78.1zM102.6 122.6c-0.3-0.3-0.5-0.6-0.6-1 -0.3 0.1-1 0.8-2 2 0.3 0.3 0.7 0.7 1.2 1.4C101.2 124.5 101.7 123.7 102.6 122.6zM105.5 123.4l-1.8 1.6 1.6 0.2C105.3 124.2 105.3 123.6 105.5 123.4zM148.3 94.9c0 0.3-0.1 0.6-0.2 1.1 -0.1 0.5-0.2 0.8-0.2 0.9h-2c-0.3-0.4-0.8-1.2-1.6-2.4 0 0.3-0.3 0.6-0.8 1 0.7-0.3 1-0.9 1-1.8 0-0.5-0.1-1.4-0.2-2.5 -0.1-1.2-0.2-2-0.2-2.5 0-0.7 0.1-1.3 0.2-1.8l2 0.2c0.3 1 0.5 2.9 0.8 5.7C147.9 93.4 148.3 94.2 148.3 94.9z" class="a"/><path d="M196 114.9c0 5-1.2 9.2-3.5 12.4 -0.8 1.2-1.9 3.1-3.3 5.7 -0.8 1.1-4.1 4-10 8.8 0.1-0.4 0.5-1 1-1.8 0-0.1 0.1-0.2 0.2-0.2h-1c1.1 0-0.3 0.6-4.3 1.8 1-0.5 2.3-1.5 4.1-2.9 0.1-0.3 0.1-0.5-0.2-0.8l-26.1 13.5c-0.1-0.5-0.4-0.8-0.8-0.8 -1.9 0-7.3 2-16.3 5.9 -0.4 0.1-1.2 0.8-2.4 2 0-1 0.1-1.4 0.4-1.4 -0.8 0.8-1.4 2-1.6 3.5 -0.3-0.1-0.8-0.5-1.6-1.2 -4.5 1.8-6.6 5-6.3 9.6 -0.3 0-0.6-0.2-1.1-0.5 -0.5-0.3-0.9-0.5-1.1-0.5 -0.3 0.4-1.1 2.2-2.4 5.5h-1c-0.1-1.4-0.1-3 0-4.9 -0.3-0.5-0.6-1-1-1.2 -0.3 0.3-0.4 0.7-0.4 1.4 0-0.7-0.2-1.2-0.6-1.4 -0.3 0.3-1 1.3-2.2 3.1 0.1-2.3 0.1-3.8 0-4.5 -0.4 0-0.7 0.2-0.8 0.6 -0.3 1.2-1 3-2 5.3 -0.1-0.1-0.3-1.2-0.6-3.3 -0.4-1.5-0.2-2.8 0.6-3.9 -1-1.1-1.9-1.6-2.9-1.6 -0.5 0-1.2 0.1-1.8 0.2 -0.7 0.1-1.2 0.2-1.6 0.2v-3.1c1.5-0.3 3.5-0.8 5.9-1.6 0.7-1.9 2.3-6.3 4.9-13.1 1.5-3.9 3.3-9 5.3-15.1v-0.6c-0.5 0.4-1 1.1-1.4 2 5.8-19.2 11.2-40.5 16.1-64.1 3.1-15.8 4.9-27.7 5.3-35.9 0-1.1 0-2.6 0-4.5 0-1.9-0.1-3.3-0.2-4.3 0-0.9 0-1.1 0-0.4v-3.3c0.3 1 0.8 2.2 1.6 3.9 0.8-1.4 1.2-2.9 1.2-4.5 0-1.2-0.2-2.4-0.6-3.7 0.1-0.7 0.8-2.2 2-4.5 -0.4 4.2-0.6 7.1-0.6 8.8 0.4-0.8 1.2-2.3 2.4-4.5 0.7-0.8 1.8-1.9 3.3-3.3 0.3 0.3 0.7 1.1 1.4 2.4 0.3-0.1 0.5-0.6 0.6-1.4v1.4c1.2 0 2.1 0.1 2.7 0.4 0.3-0.3 0.5-0.7 0.7-1.3 0.2-0.6 0.4-1 0.5-1.1 -0.1 0.7-0.1 2 0 4.1 1-0.4 1.7-1.2 2.2-2.2l-1.2-1.4c0.8 0.5 2 1.4 3.7 2.4 0.7-1.4 1-2.8 1-4.3 0.1 0.8 0.4 2 0.8 3.5 0.1-0.8 0.5-1.6 1-2.4 0.3 1.5 0.9 3.7 1.8 6.7h0.2c0.1-2 0.6-4.6 1.4-7.8 0.7-1.4 1.7-2 3.1-2 0.8 0 1.7 1.2 2.7 3.7 -1.8 0-2.9 0.8-3.3 2.4 -0.4 1.2-0.4 2.7 0 4.5 0.7 4.4 1 8.6 1 12.9 0 6.9-1 13.5-3.1 19.8 0-0.5-0.3-1.2-0.8-1.8 -0.4 2-1.2 5.1-2.2 9.2 -0.3-0.3-0.5-0.4-0.8-0.4 -0.5 1.1-1.2 2.7-1.8 4.9 0.1 0.7 0.2 1.8 0.2 3.3 -0.5 0.7-1.3 1.8-2.2 3.5v-2c-0.1-0.1-0.3 0-0.4 0.4 -0.7 2.4-2.1 7.2-4.3 14.3 1.4-0.1 4.2-0.1 8.6 0 4.9 0.3 8.8 0.9 11.6 1.8 5.8 2.2 10.7 6.1 14.7 11.8C194.1 102.6 196 108.6 196 114.9zM138.5 16.1c-0.3 0.4-0.5 1.6-0.8 3.5 -0.4-0.8-1-2.2-1.6-4.1 0.5 0.5 0.9 0.8 1 0.8h1C138.2 16.2 138.4 16.1 138.5 16.1zM137.7 136.3h-0.6l-1 2.4 0.6 0.2L137.7 136.3zM139.5 130.6c-0.8 0.7-1.4 2.2-1.8 4.5 -0.3 0-0.5 0.1-0.6 0.2 0.1 0.3 0.3 0.6 0.6 1C138.9 133.4 139.5 131.5 139.5 130.6zM169.9 120.2c0-1.1-0.4-2.7-1.2-4.7l-1 3.3c0-1.8-0.6-4.1-1.8-6.9 0 1.4-0.1 2.2-0.4 2.7 0-0.7-0.8-1.8-2.4-3.3h1.6c-0.7-2.2-4.4-3.3-11-3.3 -2.6 0-4.1 0.5-4.7 1.6 1 0 2.4 0.3 4.3 1l-4.5 1c-1.4 4.2-3.4 10.2-6.1 18 0-0.3 0.1-0.4 0.2-0.4 0.1 0.3 0.2 0.7 0.2 1.2 0 0.7-0.3 1.8-0.9 3.3 -0.6 1.5-0.9 2.4-0.9 2.7 0.7-0.8 1.4-1.9 2-3.3 0.3 0.3 0.3 0.5 0.2 0.6 0-0.4-0.3-0.1-0.8 0.8 -0.7 1.2-1.3 2-1.8 2.4l-0.4 0.4c-0.1 1.5-0.4 2.7-0.8 3.7 0-0.7 0.4-1 1.2-1 0.3 1.1-0.3 2.6-1.8 4.5h1.6c-0.7 1-1.5 2.2-2.4 3.9 2-0.7 4.2-2 6.5-4.1 -1.5 1.1-2.6 1.5-3.3 1.2 0.8-0.7 1.6-1.3 2.4-1.8 -1.5 0.5-2.4 0.7-2.9 0.4 4.4-2.6 10.7-6.2 19-10.8l-4.3 1.2c2.6-1.9 5.2-3.7 7.8-5.5 3.1-2.3 4.9-4.6 5.3-6.9C169.5 120.1 169.9 119.5 169.9 120.2zM145.9 112.2c-0.4 0.1-0.9 0.4-1.4 0.8 -1.2 3.7-2.9 9.1-4.9 16.3l1 0.6L145.9 112.2zM141 143l-0.8 1 -0.6-0.4 1.2-1.2L141 143zM143.2 13.3h-0.6v-2h0.6V13.3zM146.1 126.9l-1.2 2.2 -0.8-0.2 1.4-2.2L146.1 126.9zM147.3 108.7c-1.4 0.7-2 1.2-2 1.6h1.6C146.9 109.7 147 109.1 147.3 108.7zM146.5 111.4v-0.8h-1.2v0.8H146.5zM148.7 12.9h-0.8l-0.4-1.8h0.6L148.7 12.9zM151 113.6c-0.8 0-1.4 0.5-1.8 1.4 0.3-1.4 0.7-2.4 1.2-3.1C150.3 112.7 150.6 113.2 151 113.6zM153.2 0.8l-0.4 0.6 -1-1L152.2 0 153.2 0.8zM152.8 84v-1.2h-0.8v1.2H152.8zM153.2 82.6v-1.4h-0.8v1.4H153.2zM153.6 81v-2h-0.6v2H153.6zM154.4 82.6l-0.6-0.2 -0.6 1.4 0.6 0.2L154.4 82.6zM159.1 75.5l-0.6 2.2h-0.6l0.4-2.2H159.1zM159.5 74.7h-0.8v-1.4h0.8V74.7zM164.4 63.9h-0.6V62.2h0.6V63.9zM172.6 35.5h-1V32.6h1V35.5zM172.8 20.6h-0.6V19.4h0.6V20.6zM172.8 31.4h-0.6V21h0.6V31.4zM177.7 142.6l-2 1v-0.6l1.8-1L177.7 142.6zM189.1 113.4c0-2.4-1.1-5.4-3.3-9 0 0.7-0.1 1.2-0.4 1.4 -0.1-1.2-1.2-2.8-3.1-4.6 -1.9-1.8-3.5-3-4.7-3.4 7.6 6.1 11.2 12.9 10.6 20.4C188.8 116.6 189.1 114.9 189.1 113.4zM182.6 80.2l0.6 0.6h1.4c-0.5 0-0.3-0.3 0.6-0.8 1.2 0.4 1.5 1.2 0.8 2.2 -0.7 1.5-0.7 2.7-0.2 3.7 0.7 0.4 1.5 1.2 2.4 2.2l3.1 0.6c1.4 0 1.8-0.7 1.2-2 0.4-0.3 1-1.7 1.8-4.3 0.5 0.5 0.9 0.8 1 0.8 1.8 0 2.7-0.9 2.7-2.7 0-2.4-1.2-3.7-3.5-3.7 -0.1 0-0.3 0.1-0.5 0.3 -0.2 0.2-0.4 0.3-0.5 0.3 -0.1 0-0.5-0.2-1.2-0.7 -0.7-0.5-1.1-0.7-1.2-0.7 -0.7 0-1.8 0.5-3.5 1.4 -0.3 0.3-0.9 0.7-1.8 1.4 -0.1 0-0.2-0.1-0.2-0.2 0-1.4-0.5-2-1.6-2 -0.4 0-0.9 0.4-1.4 1.2V80.2zM187.5 131.2l-0.4-0.4 -3.9 4.1 0.2 0.4L187.5 131.2zM186 83l0.6-0.2v0.2l-0.4 0.2L186 83z" class="a"/><path d="M292.5 93c0 2.4-1 6.1-3.1 10.8 -0.8 2.3-2 6-3.5 11 -1.6 1.8-3.9 4.8-6.9 9l1-2c0.8-1.5 1.1-2.4 0.8-2.7 -1.1 1.5-2.6 3.9-4.5 7.3 -0.8 0.7-2 2-3.7 3.9 -0.8 1.5-2 3.7-3.5 6.5 -3.5 5-7.5 9.1-11.8 12.2 -7.5 5.6-12.4 8.4-14.9 8.4 -0.4 0-1-0.1-1.8-0.4 -0.8-0.3-1.4-0.4-1.6-0.4 -1.1 0-2.6 0.2-4.6 0.7 -2 0.5-3.5 0.7-4.6 0.7 -4.1 0-8.4-2.2-13.1-6.5l-4.1-0.8c-0.1 0.4-0.2 1-0.2 1.6 0 0.7 0.1 1.5 0.2 2.4 -1.4-1.8-3.2-4.1-5.5-6.9 -0.1-0.7-0.5-1.9-1-3.7 -0.4-0.3-0.8-0.5-1.2-0.8 -0.3-1.8-0.7-4.5-1.2-8.2 0.7-0.8 1-1.4 1-1.8 -1.4-3.1-2.2-5.8-2.7-8 0.4-0.4 0.4-4.1 0-11 1.2-9.9 3.7-19.7 7.5-29.4 1.5-4.2 4.4-8.6 8.8-13.3 4.6-5.4 8.8-8.6 12.4-9.4 0.5 0 3.1-1.1 7.8-3.3 -9.4 3.8-16.9 9.7-22.4 17.7 -0.1 0.1 0 0.4 0.4 0.8l1-0.8c-1.8 1.9-3.2 4.2-4.3 6.9l0.8 0.4c4.2-5.8 11.1-12 20.6-18.6 -0.4 0-1.6 0.3-3.5 1 8.7-5.2 15.4-7.7 20.2-7.5 -0.1 0-0.4 0.2-0.8 0.6 0.4 0.3 0.9 0.4 1.4 0.4 0.7 0 1.7-0.1 3.1-0.4 1.4-0.3 2.4-0.4 3.1-0.4 0.4 0 1.3 0.5 2.8 1.4 1.4 1 2.3 1.4 2.6 1.4 0.5 0 0.8-0.1 0.7-0.3 -0.1-0.2 0-0.3 0.3-0.3 0.4 0.1 1 0.6 1.7 1.3 0.7 0.7 2.8 3 6 6.6 0.5 1.2 1.9 2.9 4.1 4.9l0.8-0.8c-1-0.4-1.3-0.9-1.1-1.6 0.2-0.7 0-1.2-0.5-1.6 2.2 0 3.8 0.5 4.9 1.4 0.8-0.9 1.2-1.6 1.2-1.8 0.5 1.5 1.6 3.1 3.3 4.7 0.9 1.1 2.4 4.6 4.3 10.4 0 0.5 0.1 1.4 0.2 2.7 0.3 0.5 0.9 1.1 1.8 1.6C292.1 90.6 292.5 91.8 292.5 93zM223.2 71.4l-2.7 2.9 -0.2-0.6 2.4-2.4L223.2 71.4zM226.4 69.4l-2.7 2 -0.2-0.8 2.4-1.8L226.4 69.4zM258.9 88.9c-1.4-2-2.2-3.6-2.4-4.7 -1.8 1.2-4.6 3.5-8.6 6.9 0.1-0.8 0.7-1.8 1.6-3.1 -6.3 7.8-10.8 16.4-13.7 25.9 -0.5-0.8-0.9-1.2-1-1.2 -1 0-1.9 1.6-2.8 4.9 -0.9 3.3-1.3 5.6-1.3 6.9 0 2.7 0.6 6.3 1.8 10.6 5.4-1.5 10.7-5.5 15.7-12 5-6.5 7.5-12.4 7.3-17.7 0.5 0.3 0.9-0.1 1.2-1.2l0.6-1.4c-1.1-0.4-2.2-0.9-3.5-1.4 0.1-0.7 0.2-1.2 0.2-1.6 0-1.4-2.2-2.6-6.5-3.7l5.1-0.2c0.7 0.3 1.6 0.9 2.9 1.8 0.1-0.4 0.3-0.9 0.6-1.4 -0.8 0-1.3-0.1-1.4-0.2 0.7-0.7 1-1.2 0.8-1.6 -0.5-0.4-1.3-0.9-2.2-1.6 2-0.7 3.4-1.6 4.1-2.7 -0.4-0.5-1-1.2-1.6-1.8 0.4 0 0.9 0.1 1.6 0.3C258.1 88.8 258.6 88.9 258.9 88.9zM240.7 59.2h-1.2v-0.8h1.2V59.2zM249.5 59.4c-1.5 0.4-4.6 1.4-9.2 3.1h1.8C243 62.6 245.4 61.5 249.5 59.4zM243.4 58.1h-1.2v-0.8h1.2V58.1zM252.3 102h-1v-0.8h1V102zM288.7 68.5h-0.8v-1.8h0.8V68.5z" class="a"/><path d="M376.6 165.4c-0.4-0.1-1.2-0.2-2.2-0.1 -1.1 0.1-1.8 0.1-2.2 0.1 -0.3 0-1.1-1.1-2.3-3.3 -1.3-2.2-2-3.3-2.1-3.5 -1 0.5-1.5 1.1-1.6 1.6 -0.1 0.7 0.4 1.8 1.6 3.5 -0.3 0.9-0.3 1.9 0 2.9 -0.3 1.5-1.1 2.2-2.4 2.2 -0.4 0-0.7-0.1-0.9-0.2 -0.2-0.1-0.4-0.2-0.5-0.2 -0.3 0.3-0.5 0.6-0.6 1 0 0.3 0.1 0.5 0.2 0.6l-1-1c-1 0-1.5 0.4-1.6 1.2l-0.2 1.8c-0.4 0-1-0.1-1.6-0.4 -0.7-0.3-1.3-0.4-1.8-0.4 0.4 0.5 0.9 1.4 1.4 2.4l-0.2 1.6h-1.6c-0.7-1.8-1.8-4.4-3.3-8 -2.3 0.7-3.8 1.1-4.5 1.2 -1.9 0-2.8-3.5-2.7-10.4 0-1 0.1-4.5 0.2-10.6 -0.1 0.3-0.4 0.7-0.8 1.2 -1.4 0.5-3.1 1.4-5.3 2.4 -5.7 2-9.9 3.1-12.6 3.3l-5.3 0.2c-1.2 0-3.3-0.7-6.1-2 -0.5-0.3-1.2-0.7-2-1.2 -6.7-2.9-11.2-8.8-13.7-17.7 -1.9-7.5-2.2-15.6-0.8-24.5 0.1-0.8 0.3-2.1 0.5-3.9 0.2-1.8 0.4-3.2 0.5-4.3 0.3-1.6 2.9-9.3 8-23.1 1.9-5 4-8.4 6.3-10.2 0.1 1.1 0.4 2.5 0.8 4.3 0.1-0.1 1.2-1.5 3.3-4.1 1.6-2.3 2.9-3.5 3.9-3.5 0.5 0 1.2 0.1 1.8 0.4 0.1 0.3 0.3 0.6 0.4 1l-0.2 1.4c0.1 0.5 0.4 1.4 0.8 2.7 0.8 2 2.1 3 3.9 2.9 -1.1 0.1 0.3-0.5 4.3-1.8 0.1 0.5 0.1 1.5 0 2.9 -0.3 1.5-0.7 3.3-1.4 5.3 -0.1 0.4-0.1 0.9 0 1.4 -0.7 3.3-1.8 7.7-3.3 13.3 -0.4 1.4-0.5 2.6-0.4 3.7l0.2 0.6c-1.4 7.8-1.9 13.6-1.6 17.5 0.4 6.3 2.5 12.3 6.3 18.2l-0.2 0.4c0.8 0.1 1.8 0.5 2.9 1.2 0.1 0.3 0.3 0.4 0.6 0.4 0.5 0 3.4-1.6 8.6-4.7 0.4 0 0.7 0.2 1 0.6 -0.7 1.1-1.3 1.8-1.8 2 0.1 0.1 0.4 0.3 0.8 0.4 0 0.8 0.7 1.6 2.2 2.4 0.5-1.8 1.1-4.4 1.6-8 -0.3-0.7-0.4-1.1-0.4-1.2l0.8-1c1-9.2 4.4-22.1 10.2-38.6 1.8-4.9 4.6-11.8 8.4-20.6l1 1c-0.7 1.6-1.4 3.6-2.2 5.9l-0.6 3.1c-0.1 0.3 0.1 0.4 0.6 0.4 1.1 0 2.3-1.2 3.6-3.7 1.3-2.4 2-3.7 2.1-3.7 0.5 0 1 0.1 1.2 0.2l0.2 0.2 1.4-3.7c-0.1 1-0.1 2 0 3.3 0.8-0.4 1.6-1.8 2.4-4.1l2-0.8c1.4 1.4 2 2.1 1.8 2.2 0.5 0 0.8-0.1 0.7-0.2 -0.1-0.1 0-0.2 0.3-0.2 0.4 0 0.8 0.5 1.2 1.4 0.4 1 0.7 1.5 1 1.6 -0.1 0.4-0.7 1.3-1.6 2.7 -0.4 0.8-0.4 1.7 0 2.7 -0.1 0.1-0.1 0.3 0.2 0.6 0.8-0.3 2-1.1 3.5-2.4l-0.2 0.6c0.1 0.1 0.3 0.5 0.6 1 -0.4 1.1-0.7 2.3-1 3.7 -0.3 1.9-0.5 4.1-0.6 6.5l0.4 0.2c0.1-0.5 0.5-1 1-1.4 -0.3 1-2.5 9.7-6.7 26.1 -1.9 7.8-3.1 14.6-3.5 20.6 -0.1 1.5-0.7 4.6-1.6 9.4 -0.1 0.4 0 0.9 0.4 1.4l-0.2 1.4c-0.3 0.1-0.6 0.2-1 0.2s-0.7-0.1-1-0.4l-1.4 0.2C370.2 156.1 371.5 163.4 376.6 165.4zM337.6 81.6l-2 5.7c-1.5 4.8-2.4 7.7-2.7 8.8 -0.1 1-0.3 2.4-0.4 4.3 -0.5 2.2-1.4 3.7-2.4 4.7 -0.7-4.1-0.8-7.4-0.4-10 0.3-1.2 0.8-3.1 1.6-5.7 0.8-2.6 1.3-4.4 1.4-5.3 0.5-1.6 1.5-3.9 2.9-6.7 0.1 0.3 0.4 0.6 0.8 1 0.5-0.5 1.2-0.8 1.8-0.8L337.6 81.6z" class="a"/><path d="M396.8 132c-0.3 1.5-0.9 2.2-1.8 2 -0.3 0-1.3-0.9-3.1-2.9 0.1-0.8-0.4-1.8-1.6-2.9 -0.1-0.8-0.2-1.3-0.2-1.4 0.4 0 0.8 0.3 1.2 0.8l1.6-1.2c0.7-0.5 1.2-0.8 1.4-0.8C395.8 125.9 396.6 128 396.8 132zM394.1 30.4c0 0.3-0.1 0.6-0.3 1 -0.2 0.4-0.3 0.7-0.3 0.8 -0.7-0.1-1.4-0.1-2 0 -0.5-0.5-0.7-0.9-0.6-1 0-0.3 0.2-0.8 0.6-1.5 0.4-0.7 0.6-1.3 0.6-1.5 0.5 0 1.4 0.1 2.4 0.4L394.1 30.4zM498 64.9l-3.9 1.8c-0.1 0.5 0.3 1.2 1.4 1.8 0 0.3-0.3 0.7-0.8 1.2 -2.4 0.3-6 0.5-10.6 0.6 -0.8 0-1.6 0.3-2.2 0.8 1.1 0.3 2.2 0.5 3.5 0.8 1.2 0.1 2.4 0.2 3.7 0.2 -1.5 0.3-3.7 0.6-6.7 1 -1.4 0.5-3.3 1.1-5.9 1.6 0.1 0.3 0.3 0.3 0.6 0.2 2.3-0.3 3.6-0.4 3.9-0.4 0.9 0 4.2-0.1 9.8-0.4l0.8 0.4L490 75.7l-25.7 2.9c-9.4 1-17.9 1.6-25.5 1.8l-0.4 0.4c-0.1 0.1-1.6 4.2-4.3 12 -1.8 5.2-3 9.7-3.7 13.7 -2 13.3-1.2 24 2.7 32 7.1-4.2 10.4-6.3 10-6.3 0.5 0 1.4 0.7 2.7 2.1 1.2 1.4 2.1 2.2 2.7 2.3 0.3 0 0.4-0.1 0.4-0.2 0-0.1 0.1-0.1 0.4 0 0.3 0.1 0.7 0.5 1.2 1.2 0.8-0.7 5.2-3 13.1-6.9 -7.9 8.7-17.1 15-27.7 19 -0.5 0.3-0.8 0.5-0.8 0.8l0.4 0.6c2.7-0.1 9.5-3.4 20.4-9.8l-10.6 8c-6.8 4.9-11.3 7.1-13.5 6.7 -0.4 0-1.5-0.8-3.4-2.4s-2.8-2.7-3-3.1c-1.4 0.4-2.1 1.2-2.2 2.2l-2.4-0.4c-1.4-0.3-4.5-4.1-9.4-11.6 -1.9-3-2.9-8.9-2.9-17.7 0.1-6.4 0.7-12.6 1.6-18.8 0.3-1.8 2-9.2 5.3-22.4 -3.4 0.5-5.9 0.7-7.5 0.4 -1-0.1-2.5-0.7-4.7-1.6 -2.2-0.9-3.9-1.5-5.1-1.6l-5.5-0.8c-1 0-1.2 0-0.8 0 0-0.4 0.2-0.9 0.6-1.4 1.2-0.4 2.3-0.5 3.3-0.4 0.5 0.1 1.4 0.3 2.7 0.6 1.2 0.3 2.1 0.5 2.7 0.6l0.6-0.4c-0.3-0.4-1.2-1-2.7-1.8 0.7 0 1.8-0.1 3.5-0.2 -3.9-3.9-6.3-6-6.9-6.1 -0.4 0-1.7 0.1-3.9 0.4 0.1-0.4 0.5-0.5 1-0.4 0.1-0.1 0-0.4-0.4-0.8 1.1-1.1 2.2-2.2 3.3-3.3 2.9 0 4.4-0.5 4.5-1.4 0.3-1.2 0.1-1.8-0.6-1.8 -1.1-0.1-2-0.6-2.7-1.4 1.2-0.1 3.1-0.5 5.5-1l-0.6-0.8c0.8-0.4 2.1-1.1 3.9-2 0.3-0.4 0.2-0.6-0.2-0.6 0.8 0.1 1.3 0.4 1.4 0.8 1-0.3 1.6-1.1 1.8-2.4 0.9-0.4 2.3-0.7 4.1-1 2.6-0.3 6.5-0.7 11.6-1.4 0.5-1.1 2.2-5.8 4.9-14.3l0.4-2.9c0.1-0.5 0.7-1.9 1.8-4.1l0.2-2c0.4-1.1 1.2-2.8 2.2-5.1 0.1-0.5 0.4-1.4 0.8-2.4 1.1-1.2 1.8-2.4 2.2-3.5 1.6 1.1 3.5 2.4 5.5 3.9 0.8-0.7 2-1.6 3.5-2.9 0 0.5 0.5 2.1 1.6 4.7 0.5-1.2 1.4-3.3 2.7-6.1l1 0.4c0 1.1 0.5 2.8 1.4 5.1 0.3 1.9 0.4 3.9 0.4 6.1 0 3.4 0.1 5 0.4 4.7l-0.4 1.8h-0.6c-0.8 3.4-2.2 8.5-4.1 15.3 0.1 0.3 0.3 0.6 0.6 1 0.3 0 0.6-0.2 1-0.6 -0.1 0.5 0.1 0.9 0.6 1 1 0.1 2.5 0 4.7-0.4 1.9 0.1 5 0.2 9.2 0.2 5.3 0 8.4-0.1 9.2-0.2 -0.8 1.5-1.8 2.2-3.1 2l-3.1-0.4 -0.6 0.2c0.4 0.5 1 0.9 1.8 1 0.5 0 1.4-0.1 2.7-0.4 1.2-0.3 2.1-0.3 2.7-0.2 0.3 0 0.3 0.1 0.2 0.4 -0.1 0.3 0 0.4 0.4 0.4 -1-0.1 1.7-0.5 8-1.2 0.9 0 4.1 0 9.6 0 -0.4 0-1.3 0.3-2.8 0.9s-2.3 0.9-2.8 0.7c-3-0.4-5.6-0.2-8 0.6 0.4 0.5 0.8 0.8 1.2 0.8 6.4 1.1 9 1.4 7.8 0.8 0.4 0.5 1.5 2 3.3 4.3 0 0.4 0.1 0.8 0.2 1.2 1.1 0.5 1.4 0.8 1 0.6 1 0.1 2.9 0.1 5.7 0l0.4 0.4L498 64.9zM394.7 74.9l-2.9-0.4c0.4-0.1 0.8-0.3 1.2-0.6C393.6 74.5 394.2 74.9 394.7 74.9zM432.5 16.9c-0.8 0.5-1.3 0.8-1.4 0.8l-2.4-0.4c-0.1-0.1-0.3-0.4-0.5-0.8 -0.2-0.4-0.4-0.7-0.5-0.8 -0.8 0.1-1.5 0.6-2 1.5 -0.5 0.9-0.7 1.6-0.4 2.1 1 3.1 0.7 5.3-0.6 6.5 -1.2 0.8-3 2-5.3 3.5 -4.2 0.3-6.2 0.5-5.9 0.6 -0.8-0.1-1.4-0.6-1.8-1.5 -0.4-0.9-0.4-1.7 0-2.5 -0.4-0.5-1-1.4-1.6-2.7 -0.1-1.4-0.3-3.3-0.6-5.7 -1 0.8-1.7 1.2-2.2 1 -3.4-0.5-4.8-2.3-4.3-5.3 0.3-1.5 1.2-2.9 2.9-4.3 1.6-1.4 3.2-1.9 4.7-1.6 0.3 0 0.6 0.1 1 0.4 0.4 0.3 0.7 0.5 1 0.6 0.3 0 1.2-0.3 2.7-0.9 1.5-0.6 2.4-0.8 2.7-0.7 1.1 0.1 3.1 1.3 5.9 3.5 0.5 0.8 1.6 2 3.1 3.7 0.4-0.8 1.1-1.8 2-2.9 0.8-0.7 1.5-0.9 2-0.8 1 0.1 1.8 1 2.4 2.7L432.5 16.9zM413.3 35.5l-3.7-1.4 0.2-0.4 3.5 1.2V35.5zM416.4 44.7c-0.3 1.4-1 1.9-2.2 1.6 -2.2-0.3-3.6-1.4-4.3-3.3 0.7-1.5 1.5-2.2 2.4-2C415.3 41.4 416.6 42.6 416.4 44.7zM424.7 21.2l-0.4-0.6 -0.4 0.2 0.4 0.6L424.7 21.2zM431.5 25.5l-7.5 22.2 6.1-24.5C430.3 23.4 430.8 24.1 431.5 25.5zM435.7 120.2c-0.7 0-1.2-0.3-1.4-1 -0.4-1.5-0.5-3.1-0.2-4.7 -0.1 1.1 1.1-3.7 3.7-14.3 -0.4 1.9-0.7 5.1-0.9 9.7C436.7 114.4 436.3 117.8 435.7 120.2zM451.2 46.1l-0.8 3.3h-0.8l1-3.5L451.2 46.1zM453.5 21.2h-0.6l0.2-0.8h0.6L453.5 21.2zM465.9 22c-0.1 1.4-1.2 2.5-3.3 3.5 -0.4-0.5-0.6-0.9-0.6-1.2 0.1-0.5 0.6-1.3 1.5-2.2 0.9-0.9 1.6-1.5 2.1-1.6C466 20.8 466.1 21.4 465.9 22zM491.4 22.2c-1.2 0.8-2.2 1.2-2.9 1l-0.4-0.4 0.2-1.2c0.3-0.3 1.2-0.7 2.9-1.4l0.6 0.4L491.4 22.2z" class="a"/></svg>