<svg xmlns="http://www.w3.org/2000/svg" width="23" height="16" ><path d="M22.6 14.9l-6.5-7 6.5-6.5C22.8 1.2 23 1.3 23 1.5v13.2C23 14.9 22.8 15 22.6 14.9zM12.7 11.2c-0.4 0.4-0.9 0.6-1.4 0.6h0c-0.5 0-1-0.2-1.4-0.6L8 9.3l-6.6 6.7c-0.1 0.1 0 0.4 0.2 0.4h20c0.2 0 0.3-0.2 0.2-0.4l-6.6-7.1L12.7 11.2zM11.3 10.3L11.3 10.3c0.1 0 0.3-0.1 0.4-0.2l9.8-9.8C21.6 0.2 21.5 0 21.4 0H1.3c-0.2 0-0.3 0.2-0.1 0.4l9.8 9.8C11 10.3 11.2 10.3 11.3 10.3zM0 1.9v12.9c0 0.2 0.2 0.3 0.4 0.1L6.9 8.3 0.4 1.7C0.2 1.6 0 1.7 0 1.9z" /></svg>