<svg xmlns="http://www.w3.org/2000/svg" xmlns:xlink="http://www.w3.org/1999/xlink" version="1.1" id="Layer_1" x="0" y="0" width="26" height="22" viewBox="0 0 26 22" enable-background="new 0 0 26 22" xml:space="preserve"><path d="M25.05 17.42C22.98 21.59 17.31 22 13.25 22c-4.12 0-10.14-0.36-12.28-4.58C0.17 15.84 0 13.98 0 12.25c0-2.28 0.63-4.44 2.13-6.19C1.84 5.2 1.7 4.3 1.7 3.41 1.7 2.23 1.97 1.06 2.5 0c2.47 0 4.05 1.08 5.92 2.55C10 2.17 11.63 2 13.25 2c1.47 0 2.95 0.16 4.38 0.5C19.48 1.05 21.06 0 23.5 0c0.53 1.06 0.8 2.23 0.8 3.41 0 0.89-0.14 1.78-0.42 2.63C25.38 7.8 26 9.97 26 12.25 26 13.98 25.83 15.83 25.05 17.42zM18.5 10.5c-1.03 0-2.02 0.19-3.05 0.33C14.64 10.95 13.83 11 13 11s-1.64-0.05-2.45-0.17C9.53 10.69 8.53 10.5 7.5 10.5c-2.55 0-4 2.11-4 4.5 0 4.78 4.38 5.52 8.19 5.52h2.63c3.81 0 8.19-0.73 8.19-5.52C22.5 12.61 21.05 10.5 18.5 10.5zM8 18c-1.41 0-2-1.86-2-3s0.59-3 2-3 2 1.86 2 3S9.41 18 8 18zM18 18c-1.41 0-2-1.86-2-3s0.59-3 2-3 2 1.86 2 3S19.41 18 18 18z"/></svg>