<svg xmlns="http://www.w3.org/2000/svg" xmlns:xlink="http://www.w3.org/1999/xlink" version="1.1" x="0" y="0" width="24" height="22.94" viewBox="0 0 24 22.94" enable-background="new 0 0 24 22.938" xml:space="preserve"><path d="M2.88 5.34H2.84C1.11 5.34 0 4.16 0 2.67 0 1.16 1.16 0 2.91 0c1.77 0 2.86 1.16 2.88 2.67C5.8 4.16 4.67 5.34 2.88 5.34zM5.45 22.94H0.3V7.45h5.16V22.94zM24 22.94h-5.14v-8.28c0-2.08-0.75-3.5-2.61-3.5 -1.42 0-2.27 0.95-2.64 1.88 -0.12 0.34-0.17 0.8-0.17 1.27v8.64H8.3c0.06-14.03 0-15.48 0-15.48h5.14v2.25h-0.03c0.67-1.06 1.89-2.61 4.67-2.61 3.39 0 5.92 2.22 5.92 6.97V22.94z"/></svg>