<svg xmlns="http://www.w3.org/2000/svg" width="16" height="21" ><path d="M7.9 17.1c-1.5-1.1-3-2.7-4.3-4.5 -1.7-2.3-2.9-4.8-3.3-7 -0.2-1-0.2-1.9-0.1-2.6 0.1-0.8 0.4-1.3 0.8-1.6 0.1-0.1 0.2-0.2 0.4-0.3 0.7-0.5 1.6-1.2 2.6-1.1 0.7 0.1 1.3 0.7 1.9 1.6 0.7 1.3 0.9 2.2 0.7 2.9C6.2 5.2 5.7 5.6 5.1 6.1c-0.1 0.1-0.1 0.1-0.2 0.2C4.6 6.4 4.7 6.9 5 7.6c0.3 0.7 0.9 1.6 1.7 2.7 1.8 2.5 2.7 3 3.1 3.1 0.1 0 0.2 0 0.2 0 0.1 0 0.1-0.1 0.2-0.1 0.7-0.5 1.3-0.9 2.1-0.8 0.7 0.1 1.4 0.6 2.3 1.6 0.7 0.8 1.1 1.5 1 2.2 -0.1 1-1.1 1.7-1.8 2.2 -0.1 0.1-0.3 0.2-0.4 0.3 -0.4 0.3-1 0.4-1.8 0.3C10.5 18.8 9.2 18.1 7.9 17.1z" /><path d="M15.7 20.6c-0.3-1.6-1.8-2.7-1.8-2.7l0 0c-0.2-0.1-0.2-0.4-0.1-0.5 0.1-0.2 0.4-0.2 0.5-0.1 0.1 0.1 1.8 1.3 2.1 3.2 0 0.2-0.1 0.4-0.3 0.4 0 0-0.1 0-0.1 0C15.9 20.9 15.7 20.8 15.7 20.6z" /></svg>