<svg xmlns="http://www.w3.org/2000/svg" version="1.1" x="0" y="0" width="24" height="24" xml:space="preserve"><path d="M18 24c-1.4 0-2.6-0.5-3.7-1.2C13.6 22.9 12.8 23 12 23 5.9 23 1 18.1 1 12c0-0.8 0.1-1.6 0.3-2.3C0.5 8.6 0 7.4 0 6c0-3.3 2.7-6 6-6 1.4 0 2.6 0.5 3.7 1.3C10.4 1.1 11.2 1 12 1c6.1 0 11 4.9 11 11 0 0.8-0.1 1.6-0.2 2.3C23.5 15.4 24 16.6 24 18 24 21.3 21.3 24 18 24zM13.5 10.5l-1.6-0.4c-1.2-0.3-2.1-0.5-2.1-1.4 0-0.8 0.9-1.2 2.3-1.2 2.5 0 2.5 1.8 4 1.8 1 0 1.6-0.8 1.6-1.7 0-1.8-3-3-5.9-3 -2.7 0-5.8 1.2-5.8 4.3 0 2.6 1.8 3.6 4 4.1l2.3 0.6c1.4 0.3 2.3 0.5 2.3 1.5 0 0.8-0.9 1.4-2.3 1.4 -2.9 0-3-2.4-4.7-2.4 -1.1 0-1.6 0.8-1.6 1.6 0 1.9 2.9 3.5 6.5 3.5 2.9 0 6-1.5 6-4.6C18.3 11.9 15.7 11 13.5 10.5z"/></svg>