<svg xmlns="http://www.w3.org/2000/svg" xmlns:xlink="http://www.w3.org/1999/xlink" version="1.1" x="0" y="0" width="30.01" height="17.12" viewBox="0 0 30.01 17.12" enable-background="new 0 0 30.011 17.123" xml:space="preserve"><path d="M27.63 5.83c-3.03 4.03-3.36 3.66-0.86 5.98 2.41 2.23 2.91 3.31 2.98 3.45 0 0 1 1.75-1.11 1.77l-4 0.06c-0.86 0.17-2-0.61-2-0.61 -1.5-1.03-2.91-3.7-4-3.36 0 0-1.12 0.36-1.09 2.77 0.02 0.52-0.23 0.8-0.23 0.8s-0.28 0.3-0.83 0.34h-1.8c-3.95 0.25-7.44-3.39-7.44-3.39S3.44 9.71 0.09 1.85c-0.22-0.52 0.02-0.77 0.02-0.77S0.34 0.79 1 0.79l4.28-0.03c0.41 0.06 0.69 0.28 0.69 0.28s0.25 0.17 0.38 0.5c0.7 1.75 1.61 3.34 1.61 3.34 1.56 3.22 2.63 3.77 3.23 3.44 0 0 0.8-0.48 0.63-4.37 -0.06-1.41-0.45-2.05-0.45-2.05C11 1.41 10.33 1.27 10.03 1.22c-0.23-0.03 0.16-0.59 0.67-0.84 0.77-0.37 2.13-0.39 3.73-0.37 1.27 0.02 1.63 0.09 2.11 0.2 1.48 0.36 0.98 1.73 0.98 5.05 0 1.06-0.2 2.55 0.56 3.03 0.33 0.22 1.14 0.03 3.14-3.37 0 0 0.94-1.62 1.67-3.52 0.13-0.34 0.39-0.48 0.39-0.48s0.25-0.14 0.59-0.09l4.5-0.03c1.36-0.17 1.58 0.45 1.58 0.45C30.2 1.88 29.47 3.38 27.63 5.83z"/></svg>