<svg xmlns="http://www.w3.org/2000/svg" width="505" height="165" viewBox="0 0 505.1 165"><path d="M12.9 32.6c-0.1 1.1-1.9 3.7-5.3 8 -0.4 0.8-1 1.2-1.8 1 -1.1 0-2.1-0.4-3.1-1.2 -0.4-0.4-1.2-1.7-2.4-3.9C0.1 34.3 0 33 0 32.4c0.4-3.9 2.2-5.7 5.5-5.3 0.8 0.1 1.8 1.3 3.1 3.5 0.1 0.1 0.3 0.1 0.5-0.1 0.2-0.2 0.4-0.3 0.7-0.3 0.4 0 1 0.3 1.8 0.9C12.4 31.7 12.9 32.2 12.9 32.6zM150.6 26.1c-1.4 0.8-2.1 1.8-2.2 2.9 0 0.5 0.1 1.1 0.4 1.6 -0.7 0.3-1.6 0.9-2.7 1.8 0-0.1-0.1-0.3-0.2-0.6 -2.7 1.6-4.1 3.9-4.1 6.9 1.1-0.9 2.7-2.5 4.7-4.7l-0.2 1 1.2 0.2c0.4-0.1 0.7-0.2 0.8-0.2 -1.5 0-2.9 1.6-4.3 4.7 0 0.3 0.1 0.6 0.2 1 -2.9 4.9-4.3 7.9-4.3 9 0.4 0.1 0.8 0 1.2-0.4 0.4-1.1 2.2-3.5 5.5-7.3 -1.5 2.4-3.1 5.2-4.7 8.2 -3.1 6.1-4.8 9.9-4.9 11.4 0 0.3-0.2 0.9-0.7 1.7 -0.5 0.9-0.8 1.6-0.9 2.1 0 0.5 0.1 1.3 0.4 2.2l-0.6-0.4c0.3 0.3 0.4 0.6 0.4 1 0 0.3-0.2 0.6-0.6 1v0.4c-0.1 0.1-0.1 0.3 0.2 0.4l0.8-1.4c0.7 1.1 1 1.8 0.8 2.2 0 0.8-1.4 3.5-4.1 8 -0.1 0-0.2 0.4-0.2 1.2l-0.8-0.6v0.2c0 0.1 0.1 0.3 0.2 0.4 0.1 0.1 0.2 0.4 0.2 0.8 -0.1 0.4-1 2.7-2.7 6.7 -0.7-0.1-1.2-0.1-1.6 0 -0.1 0.5 0 0.8 0.4 0.8 0.3 0.1 0.6 0 1-0.4 -0.3 0.5-0.8 1.4-1.6 2.4 0.5 0.5 1.1 1.3 1.6 2.2l-11.6 26.1c-6 13.7-11.8 23.3-17.5 28.6 0 0.7-0.7 2-2.2 3.9 -0.7 0.3-1.6 0.9-2.9 1.8 -0.3 0-0.6-0.2-1.1-0.7 -0.5-0.5-0.9-0.7-1.1-0.7 -0.3 0-0.5 0.1-0.8 0.4 -0.3 0.3-0.5 0.4-0.8 0.4 -0.8 0-1.8-1.2-3.1-3.5 -0.7 0.3-1 0.7-1 1.4 0.1 0.7 0.1 1.2 0 1.6 -0.1-0.4-1.1-0.5-2.9-0.4 0.3 0.8 0.9 2.1 1.8 3.9 -6.9-3-10.2-4.5-9.8-4.5 -0.3 0-0.4 0.1-0.4 0.4 0 0.3-0.2 0.4-0.6 0.4 0.1 0 0.1-0.2-0.2-0.6 -3.9-1.2-6.8-1.8-8.6-1.8 -1.2-0.5-2.1-1.8-2.7-3.7 -0.1-0.3-0.5-0.5-1.2-0.8 -2.4-4.6-4.2-7-5.3-7.1 0-0.1 0.1-0.3 0.4-0.6l0.4-0.6c0.3-1.6-0.2-2.5-1.4-2.7 -1-0.1-2 1.1-3.3 3.7 0.1 0.3 0.2 0.7 0.2 1.2 -0.3 0-2.2 2-5.7 6.1 -3.5 4.1-5.8 6.1-6.9 5.9 0.4 0.1-0.5-0.4-2.7-1.6 -0.5 0-1.3-0.1-2.2-0.4 -1-0.3-1.7-0.4-2.2-0.4 -0.8 0.8-1.4 2-1.6 3.5 -0.4 0.7-1.4 0.9-2.9 0.6 -3.8-0.3-6.3-2.4-7.3-6.3l-3.7-4.1c-1.5-2.7-3.1-5.4-4.7-8 -1.8-3.5-2.9-6.4-3.5-8.6 -2.6-10.5-4.4-21.5-5.5-33l0.2-2.4c0-0.9-0.5-1.7-1.4-2.2 -0.4 8.7 0.3 16.7 2.2 23.9 -1.1-0.1-1.7-0.5-1.8-1.2 -0.5-1.8-1-3.9-1.4-6.5C1 95.6 0.7 86.4 1.8 76.3c0.3-3 1.3-5.6 3.1-8 -0.1 0.3-0.1-0.1 0-1 0.3 0.4 0.5 0.6 0.8 0.6l0.8-0.4c-0.4-0.3-0.8-0.9-1.2-2 0.5 0 1-0.1 1.2-0.4 0.3 0.8 0.7 1.9 1.2 3.3l0.8 0.2c0.3 0.3 0.5-0.3 0.6-1.6 -1.2-1.2-1.8-2.3-1.6-3.3 0.1 0 0.3-0.1 0.5-0.4 0.2-0.3 0.4-0.3 0.7-0.2 0.5 0 1.2 1 2 2.9 0.1-0.1 0.2-0.4 0.2-0.8 0.3-2-0.3-3.9-1.6-5.7 -0.1 0-0.3 0-0.5 0.1 -0.2 0.1-0.4 0.1-0.7 0.1 -0.4 0-1-0.8-1.8-2.5 -0.8-1.7-1.2-2.8-1-3.4 0-0.3 0.1-0.5 0.3-0.7s0.3-0.4 0.3-0.5H7.1c1 0.5 1.6 1.5 2 2.9 0.1 0.7 0 1.7-0.4 3.1 0.1 0.4 0.5 0.8 1 1.2 0.3-0.7 0.7-0.9 1.4-0.8 0.4 0.1 1.1 0.7 2 1.8 0.1-0.7 0.5-1.7 1-3.1 1.1 1.1 1.8 2 2.2 2.7 0.7 0.1 1.2 0.1 1.4 0 -2.7-4.8-4-7.8-3.9-9.2 0.1-0.9 0.9-2.2 2.2-3.9 1.4-1.6 2.5-2.4 3.5-2.2 0.7 0 1.6 0.6 2.7 1.8 1.1 1.2 1.6 2.2 1.4 2.9 0 0.5-0.3 1.4-0.9 2.7 -0.6 1.2-0.9 2.1-0.9 2.7 0.1 0.3 0.5 1.2 1.2 2.7 3.3-0.7 4.9-1.4 4.9-2.2 0 1.1-0.3-0.1-0.8-3.5 0.1 0 0.4-0.1 0.7-0.2 0.3-0.1 0.6-0.1 0.9 0 1.4 0.1 2.2 2.8 2.7 8 -0.5 13.1 0.5 27.4 3.3 43 0.3 0.4 0.7 1.2 1.2 2.2 0.3 0 0.5-0.1 0.6-0.4 0-0.1-0.1-0.3-0.4-0.6 1.2-1.5 1.7-2.5 1.4-3.1l0.8 1c0.5-0.7 0.9-1.2 1-1.6 -0.1-0.3-0.3-0.4-0.4-0.4 0.4-0.4 0.6-0.9 0.6-1.4 0.5-0.8 1.6-2.7 3.3-5.5 -0.1 0.3-0.5-0.1-1.2-1 0.5 0.1 0.9 0.3 1 0.4 0.3-0.3 0.7-0.7 1.2-1.4 0-0.1-0.1-0.3-0.2-0.6 0.8-1.1 1.4-2.3 1.6-3.7 1.4-1.5 2.2-2.8 2.4-3.9 0 0.1 0.1 0.3 0.4 0.4 0.8-0.5 1.4-1.5 1.6-2.9 0-0.5 0.1-1.4 0.2-2.7 0.8-0.3 1.3-1.1 1.5-2.3 0.2-1.3 1-2.3 2.3-3.2 1.4-0.8 2.2-1.4 2.7-1.8 0.1-4.4 1-8.9 2.7-13.7 0.4-1.2 1.4-2.6 3.1-4.1 1.6-1.5 3-2.2 4.1-2 1.2 0.1 2.4 1.3 3.5 3.5 0.4-0.3 1.1-0.3 2-0.2 -0.3-0.1 0.1-0.4 1-0.8l2-2.9 3.1 1.4c0.4 0 1.1-0.1 2-0.4 1.2 2.7 1.8 6.5 1.6 11.2L81.6 73.4c-0.1-0.4-0.3 0-0.4 1.2 0.1 0.3 0.3 0.4 0.4 0.4 0.4-0.4 0.7-0.9 0.8-1.6 0-0.4-0.1-1.1-0.4-2 0.3-0.3 0.7-0.3 1.2-0.2 0-0.7 0.1-1.6 0.4-2.9 0.3-1.2 0.5-2.2 0.6-2.9 0 0.5 0.2 1.3 0.6 2.2 0.1-0.4 0.6-1.6 1.4-3.7 0 0.1 0.1 0.2 0.2 0.2 0.3 0.1 0.5 0.1 0.8 0l-2.9 25.3c0-0.8-0.1-2.1-0.4-3.9 -0.4 0.5-0.7 1.4-0.8 2.4 -0.1 1.4 0 3 0.4 4.9 0.7-1.6 1-2.7 1-3.1l-0.6 16.9c-0.1 2.2-0.3 5.4-0.4 9.8 4.9-5.7 9.9-14.3 14.9-25.9 7.1-16 11.2-25.2 12.4-27.5 0.7-1.4 1-2.5 1-3.5 0.7-0.1 1.1-0.4 1.2-0.8 0-0.1-0.1-0.4-0.2-0.8 1.6-2.4 3.7-6.1 6.1-11 0 0.4 0.3 1 1 1.6 0.3 0 0.5 0 0.6 0 0.8-1.2 2-2.9 3.5-4.9 -1 3.3-2.7 6.7-5.1 10.4l0.4 1c-1.1 0.3-2 1.2-2.7 2.9 -0.3 0.7-0.4 1.3-0.4 1.8 -0.1 0.5 0 1 0.4 1.4 -0.1 0-0.4-0.3-0.8-0.8 -0.1 0.5-0.7 1.3-1.6 2.2v1.6c1.6-0.7 2.4-1.1 2.2-1.2 -0.5-0.4-0.8-0.7-0.8-1l0.8 0.2c-0.3 0 0.3-0.2 1.6-0.6 -0.4-0.5-0.5-0.8-0.2-0.8l0.2-0.2 0.2-0.8c0.1-0.3 1.7-2.9 4.7-7.8 0.4-0.9 0.3-1.5-0.2-1.6 0.4-0.1 0.9-0.6 1.4-1.4 0.4-1.5 1.3-3.7 2.7-6.5 1.6-1.5 3.2-3.3 4.7-5.3 0.4-0.4 1.8-2.1 4.1-5.1l2-2.4c-0.1 0.7-0.1 1.1 0 1.2 0.5-0.5 1.4-1.4 2.7-2.4l1.2-2.4c-0.1 0.1-0.1 0.3 0.2 0.6 0.4-0.5 0.8-1.2 1.2-1.8 0 1.6-0.5 3.2-1.6 4.7 0.1 0.1 0.3 0.2 0.6 0.2 0.4-0.4 1.5-1.5 3.3-3.3 -5.8 7.8-11.1 15.2-15.7 22.4 -0.4 0.8-0.5 1.6-0.4 2.4l13.1-17.5c0.5-0.8 1.2-1.7 1.8-2.7 -0.3 0-0.2 0.3 0.2 0.8 1.8-2.6 2.6-4.3 2.4-5.1 0.1 0 0.4 0.3 0.8 0.8 0.4-0.3 1-0.6 1.6-1 0.1-0.5 0.5-1.2 1.2-1.8V26.1zM29.4 18.8c-0.1 1.9-3.2 4.4-9.2 7.3 -1.5-1.4-2.9-2.1-4.1-2.2h-0.6c0 0.1-0.1 0.2-0.4 0.2 -3.8-0.4-5.4-3.8-4.7-10.2 0.4-3.5 1.8-5.2 4.1-4.9 0.8 0.1 1.4 0.3 1.8 0.6 3-4.4 5.2-6.5 6.7-6.3 1.9 0.3 3.3 1.5 4.3 3.7l1.8 5.9 -0.2 3.3c0 0.1 0.1 0.5 0.2 1.2C29.3 18 29.4 18.5 29.4 18.8zM17.5 40c-0.1 1.2-1.2 1.8-3.1 1.6 -1.1-0.1-2-1.1-2.9-2.9 0.7-0.8 1.5-1.2 2.4-1C16.5 37.9 17.7 38.6 17.5 40zM13.3 67.3h-0.6l-0.6 0.8 0.6 0.4L13.3 67.3zM13.5 85.3c0-1.8 0.1-4.1 0.2-7.1 -0.3-0.4-0.7-1-1.2-1.8l-0.2 1.8c0 1 0.3 2 0.8 3.1C12.4 83 12.5 84.3 13.5 85.3zM13.7 62.6h-0.6l-0.4 1 0.6 0.2L13.7 62.6zM13.5 65.1V64.3h-0.4l-0.2 0.8H13.5zM18.4 80.8l-0.4-0.2 -0.4 0.8 0.4 0.4L18.4 80.8zM24.5 146.1l-1-0.2v-0.6l1 0.2V146.1zM27.7 74.1l0.2-2.9c-0.3-0.1-0.5-0.3-0.8-0.6 0 0.4-0.1 1.6-0.4 3.5l-0.4 0.2c0 0.3 0 0.6 0 1C26.5 75 26.9 74.6 27.7 74.1zM32 39.2c-3 1.4-4.2 2-3.7 2 -1.5-0.1-2.1-1.4-1.8-3.9 0.1-1.8 0.8-2.6 2-2.4 1 0.1 2.2 0.8 3.7 2L32 39.2zM28.8 59.2v-0.8l-0.6-0.2v0.8L28.8 59.2zM51.4 22c-0.5 0.5-0.9 0.8-1 0.8 0.4 0-0.7-0.6-3.5-1.8 0-0.5 0.1-1.6 0.4-3.3 1.1 0.4 2.5 1 4.3 1.8L51.4 22zM55.1 72.4l-0.4-0.2 -0.4 1 0.4 0.2L55.1 72.4zM66.1 56.7c0.3-2.2 0.3-3.4 0-3.7 -1.1 1-1.7 1.8-1.8 2.4 0 0.4 0.1 0.8 0.2 1v0.4c0.1 0 0.4 0 0.8-0.1C65.7 56.7 66 56.7 66.1 56.7zM78.7 121.6l1.6-26.5c0 0.4-0.1 1.1-0.3 2.1s-0.4 1.7-0.5 2.1L78.7 121.6zM81 93.2h-0.6l-0.4 1 0.6 0.2L81 93.2zM81.2 92H80.6l-0.4 1 0.4 0.2L81.2 92zM81.6 87.9c-0.3-1.4-0.3-2.3-0.2-2.9 -0.4 3.1-0.5 5-0.4 5.5C81 90.2 81.2 89.3 81.6 87.9zM82 82.2l0.4-4.1c-0.8 1.4-1.2 2.2-1.2 2.7C81.3 81.1 81.6 81.5 82 82.2zM82.8 76.7L82.2 76.5l-0.4 0.6 0.6 0.4L82.8 76.7zM83 111.2l0.4-3.1h-0.6l-0.4 3.1H83zM83.2 113.4l0.2-1.2h-0.6l-0.2 1.2H83.2zM83.4 117.1l-0.4 1.4 -0.4-0.2 0.4-1.2H83.4zM83.4 106.5l0.2-2.9h-0.6l-0.2 2.9H83.4zM83.6 100.2l0.2-1.2h-0.6l-0.2 1.2H83.6zM84.3 84.7l0.2-2.7h-0.6l-0.2 2.4L84.3 84.7zM103.8 91.2c-0.4 0-0.7-0.2-0.8-0.6 0.7-1.6 1.1-3.3 1.2-4.9 -0.8 1.4-1.8 3.3-3.1 5.7 0.3 0.8 0.3 1.4 0.2 1.8 0 0.5-0.3 1.1-1 1.6l-0.2 2.2c0.8-0.4 1.6-1.5 2.3-3.2C103.3 92.2 103.7 91.3 103.8 91.2zM103 147.5c-0.4 0.5-1 0.7-1.8 0.6 0.1 0.1 0.2 0.4 0.2 0.8C102.5 148.6 103 148.2 103 147.5zM104.4 146.3l-1 1 -0.2-0.4 0.8-1L104.4 146.3zM110.8 77.1c0-0.3-0.1-0.5-0.2-0.8 -0.1-0.3-0.2-0.5-0.2-0.6 -0.3 0-0.5 0.1-0.6 0.4 0.1 0.8-0.3 1.4-1.2 1.8 -0.4 1.9-1.4 4.2-2.9 6.7 0-1.1-0.1-1.9-0.2-2.4 0 0.4-0.2 0.9-0.5 1.5 -0.3 0.6-0.5 1.1-0.5 1.5l1-0.4c0.3 0.3 0.4 0.6 0.4 1C109 80.4 110.6 77.5 110.8 77.1zM106.7 81.2l0.2-1 -0.4 0.2c-0.3 0.1-0.4 0.3-0.4 0.4C106.1 81.1 106.3 81.2 106.7 81.2zM112.2 69.4l-0.4-0.2 -0.6 1.8h0.6L112.2 69.4zM114.2 70.2c0-0.1 0-0.4-0.1-0.7 -0.1-0.3-0.1-0.6-0.1-0.7 -0.3 0.4-0.7 1-1.2 1.6C113.2 70.1 113.7 70 114.2 70.2zM114.9 65.9h-0.6l-0.6 1.6 0.6 0.2L114.9 65.9zM126.7 57.1h-0.4l-0.4 1 0.2 0.4L126.7 57.1zM128.9 42.4l-0.2-0.6 -1.4 1.2 0.4 0.2L128.9 42.4zM128.3 89.6l-0.4-0.4 -0.4 0.2 0.4 0.6L128.3 89.6zM130.6 83.6c-0.7 1-1.2 1.6-1.4 2h0.6C130.2 84.7 130.4 84 130.6 83.6zM133.8 69l-0.6-0.2 -0.6 2.2h0.4L133.8 69zM134 21.4l-0.8 0.8 -0.4-0.2 0.6-1L134 21.4zM135 68.1v-1.4h-0.6v1.4H135zM137.7 73.6l-1 1.4 -0.4-0.2 1-1.2H137.7zM137.5 65.7l-1 0.2v-0.4l0.8-0.4L137.5 65.7zM140.6 18.6c-0.7 1.5-1.3 2.7-1.8 3.5 -0.1-0.3-0.2-0.6-0.2-1C138.5 20.6 139.2 19.8 140.6 18.6zM141.4 23.3h-0.6v-1h0.6V23.3zM143.4 16.1l-1.8 2 -0.4-0.4 1.8-2L143.4 16.1zM142.4 24.3l-1.2 1c0-0.5 0.3-1.3 1-2.2C142.2 23.6 142.3 24 142.4 24.3z"/><path d="M233.8 85.9c0 2.4-1 6.1-3.1 10.8 -0.8 2.3-2 6-3.5 11 -1.6 1.8-3.9 4.8-6.9 9l1-2c0.8-1.5 1.1-2.4 0.8-2.7 -1.1 1.5-2.6 3.9-4.5 7.3 -0.8 0.7-2 2-3.7 3.9 -0.8 1.5-2 3.7-3.5 6.5 -3.5 5-7.5 9.1-11.8 12.2 -7.5 5.6-12.4 8.4-14.9 8.4 -0.4 0-1-0.1-1.8-0.4 -0.8-0.3-1.4-0.4-1.6-0.4 -1.1 0-2.6 0.2-4.6 0.7 -2 0.5-3.5 0.7-4.6 0.7 -4.1 0-8.4-2.2-13.1-6.5l-4.1-0.8c-0.1 0.4-0.2 1-0.2 1.6 0 0.7 0.1 1.5 0.2 2.4 -1.4-1.8-3.2-4.1-5.5-6.9 -0.1-0.7-0.5-1.9-1-3.7 -0.4-0.3-0.8-0.5-1.2-0.8 -0.3-1.8-0.7-4.5-1.2-8.2 0.7-0.8 1-1.4 1-1.8 -1.4-3.1-2.2-5.8-2.7-8 0.4-0.4 0.4-4.1 0-11 1.2-9.9 3.7-19.7 7.5-29.4 1.5-4.2 4.4-8.6 8.8-13.3 4.6-5.4 8.8-8.6 12.4-9.4 0.5 0 3.1-1.1 7.8-3.3 -9.4 3.8-16.9 9.7-22.4 17.7 -0.1 0.1 0 0.4 0.4 0.8l1-0.8c-1.8 1.9-3.2 4.2-4.3 6.9l0.8 0.4c4.2-5.8 11.1-12 20.6-18.6 -0.4 0-1.6 0.3-3.5 1 8.7-5.2 15.4-7.7 20.2-7.5 -0.1 0-0.4 0.2-0.8 0.6 0.4 0.3 0.9 0.4 1.4 0.4 0.7 0 1.7-0.1 3.1-0.4 1.4-0.3 2.4-0.4 3.1-0.4 0.4 0 1.3 0.5 2.8 1.4 1.4 1 2.3 1.4 2.6 1.4 0.5 0 0.8-0.1 0.7-0.3 -0.1-0.2 0-0.3 0.3-0.3 0.4 0.1 1 0.6 1.7 1.3 0.7 0.7 2.8 3 6 6.6 0.5 1.2 1.9 2.9 4.1 4.9l0.8-0.8c-1-0.4-1.3-0.9-1.1-1.6 0.2-0.7 0-1.2-0.5-1.6 2.2 0 3.8 0.5 4.9 1.4 0.8-0.9 1.2-1.6 1.2-1.8 0.5 1.5 1.6 3.1 3.3 4.7 1 1.1 2.4 4.6 4.3 10.4 0 0.5 0.1 1.4 0.2 2.7 0.3 0.5 0.9 1.1 1.8 1.6C233.4 83.4 233.8 84.7 233.8 85.9zM164.4 64.3l-2.7 2.9 -0.2-0.6 2.4-2.4L164.4 64.3zM167.7 62.2l-2.7 2 -0.2-0.8 2.4-1.8L167.7 62.2zM200.1 81.8c-1.4-2-2.2-3.6-2.4-4.7 -1.8 1.2-4.6 3.5-8.6 6.9 0.1-0.8 0.7-1.8 1.6-3.1 -6.3 7.8-10.8 16.4-13.7 25.9 -0.5-0.8-0.9-1.2-1-1.2 -1 0-1.9 1.6-2.8 4.9 -0.9 3.3-1.3 5.6-1.3 6.9 0 2.7 0.6 6.3 1.8 10.6 5.4-1.5 10.7-5.5 15.7-12 5-6.5 7.5-12.4 7.3-17.7 0.5 0.3 1-0.1 1.2-1.2l0.6-1.4c-1.1-0.4-2.2-0.9-3.5-1.4 0.1-0.7 0.2-1.2 0.2-1.6 0-1.4-2.2-2.6-6.5-3.7l5.1-0.2c0.7 0.3 1.6 0.9 2.9 1.8 0.1-0.4 0.3-0.9 0.6-1.4 -0.8 0-1.3-0.1-1.4-0.2 0.7-0.7 1-1.2 0.8-1.6 -0.5-0.4-1.3-0.9-2.2-1.6 2-0.7 3.4-1.6 4.1-2.7 -0.4-0.5-1-1.2-1.6-1.8 0.4 0 1 0.1 1.6 0.3C199.4 81.7 199.8 81.8 200.1 81.8zM182 52h-1.2v-0.8h1.2V52zM190.7 52.2c-1.5 0.4-4.6 1.4-9.2 3.1h1.8C184.2 55.4 186.7 54.4 190.7 52.2zM184.6 51h-1.2v-0.8h1.2V51zM193.6 94.9h-1v-0.8h1V94.9zM229.9 61.4h-0.8v-1.8h0.8V61.4z"/><path d="M230.1 38.8c1.9-0.8 3.4-1.4 4.5-1.8 0.1 1.6 0.2 2.7 0.2 3.3 -2.7 1.1-3.9 1.6-3.5 1.6 -0.1 0-0.5-0.2-1-0.6L230.1 38.8zM235.4 88.5l0.2-0.8 -0.2-2c1.5-3.5 2.9-5.4 4.1-5.5 1 0 1.8 0.6 2.7 1.8 0.3 0.8 0.7 1.6 1.2 2.2 0.3-0.1 0.7-0.2 1.2-0.2 1.4 0 2.1 1 2.2 3.1 0.1 3.9-1 5.9-3.3 5.9 -0.1 0-0.2-0.1-0.2-0.2l-0.4 0.2c-0.7 0-1.6 0.4-2.7 1.2 -3.5-2.6-5.3-4.1-5.3-4.7C235 89.3 235.1 88.9 235.4 88.5zM239.7 132.4l-2.2 7.5 0.4 0.2 2.4-7.8H239.7zM317.6 66.5c-0.4-1.6-0.4-2.6 0-2.9 -1.1-3.9-1.9-6.9-2.4-9 -1.9-1.5-3.1-2.3-3.7-2.4 -0.4 1-0.6 1.7-0.6 2.2h-0.4c-1.1-1.8-2-2.6-2.7-2.4l-2.4 1.4c-0.3-0.4-0.5-0.7-0.6-0.8 -2.7-1.6-4.5-2.4-5.3-2.2 -0.8 0-3.3 2-7.3 5.9 -0.7 0-1.2-0.3-1.6-0.8 0 0.7-0.1 1.2-0.4 1.4l-1.2 0.2c-0.3 0-0.4-0.1-0.3-0.3 0.1-0.2 0-0.3-0.3-0.3 -0.7 0-1.4 0.7-2 2.2v1.8c0 0.7-0.1 1.2-0.4 1.6 1.2-1.8 2.1-3.1 2.7-3.9l0.2 0.4c-5 8.8-9.1 15.6-12.2 20.2 -0.1-1.8-0.1-4.2 0-7.3 -0.1-0.1-0.2-0.3-0.2-0.4 0.4-3.7 0.4-6.7 0-9.2 -0.1 0-0.2 0.1-0.3 0.2 -0.1 0.1-0.2 0.2-0.5 0.2 -0.5 0-0.7-0.8-0.6-2.4l0.4-2.4c-3-3.3-5.2-4.5-6.7-3.7 2.7 1.4 4 2.4 3.9 3.3 1.1 0.3 1.7 1.2 1.8 2.7 0 0.5-0.1 1-0.2 1.2 -1.4-2.7-2.8-4.3-4.3-4.7 0 0.1 0.1 0.3 0.2 0.6 0.1 0.3 0.2 0.5 0.2 0.6l0.6-0.2c0.7 0 1.4 0.7 2.2 2l-1.6 0.8c-2.9-3.1-4.6-4.8-5.1-4.9 0.3-0.4 0.4-0.9 0.4-1.4 -2.3 1.5-4.5 2.4-6.5 2.9 -1.5 0.7-2.6 1.2-3.3 1.4 -0.1 0.5-0.2 1-0.2 1.4 -0.5 1.1-1.3 1.9-2.2 2.4 -1.2-0.4-2.2-0.7-2.9-0.8 0-0.1-0.2-0.1-0.6 0.2 0.3 0 0.4 0.1 0.4 0.4 -0.7 1.9-1.1 3-1.2 3.3 0.1-0.1 0.4-0.3 0.9-0.4 0.5-0.1 0.8-0.3 0.9-0.4 0.1 0.1 0.1 0.3 0 0.4 -1.5 1.9-2.2 3.1-2.2 3.5 -1.1 0.5-1.9 1.1-2.4 1.6l0.8-0.6c0.4 0.4 0.7 0.8 0.8 1 -0.1 0.3-0.1 0.6 0 1 0.5-1.5 0.9-2.4 1.2-2.7 0.3 0.5 0.2 1-0.2 1.4 0.7-0.1 0.9 0.5 0.8 1.8 0.9 4.2 1.5 6.6 1.6 7.1 0.1 0.8-0.1 2.7-0.8 5.7 0.1-0.1 0.4 0.1 0.8 0.8 -1.1 6-1.8 10-2.2 12 -1.8 9.5-3.1 15.5-3.9 18 -1.5 4.2-2.2 7.5-2.2 10 0 0.1-0.1 0.5-0.3 1 -0.2 0.5-0.3 1-0.3 1.2 0 0.5 0.1 0.8 0.4 0.8l5.7-17.7 -5.5 21.2c0.9-3.3 1.7-5.6 2.2-6.9 0 0.3-0.7 3.2-2.2 8.8 0-0.3 0.3-0.5 0.8-0.6l-2.4 6.1c-0.1-0.8 0-1.9 0.5-3.3 0.5-1.4 0.6-2.2 0.5-2.4 -1 3.4-1.5 5.4-1.6 5.9 0-0.1 0.1-0.3 0.2-0.4 0.1 0.8-0.7 4.2-2.4 10l-0.4-0.6c0.1 2.2-0.1 3.6-0.6 4.3 0.7-1.1 1.2-1.9 1.6-2.4 0.1 0.4 0.2 0.7 0.2 0.8 -0.1-1.1 0.3-2.5 1.2-4.3l0.4 0.6c0-0.1 0.1-0.3 0.2-0.6 0.1 0.8 0 1.8-0.3 2.9 -0.3 1.1-0.5 1.8-0.5 2.2 0.5-1.5 1-2.5 1.2-3.1 0.4 0.4 0.6 0.7 0.6 0.8 -0.7 1.8-1 3.1-1 3.9 1.6-3.3 2.5-5 2.7-5.3 8.3-21.9 12.4-32.9 12.4-33 2.6-8.3 4.8-16 6.5-23.3 1 1 1.4 1.3 1.4 1 -4.8 18-7.2 27.1-7.3 27.5 -3.3 12.2-6.8 22-10.6 29.4 0.4-0.3 0.6-0.2 0.6 0.2v1.2c0.5-1.8 1.3-3.3 2.2-4.5 0.3 0.1 0.3 0.3 0.2 0.4 -1 2.9-1.8 4.6-2.4 5.3 -1.9 3.8-3.1 6.8-3.7 9 0.8-1.6 1.4-2.8 1.8-3.5 0.1 0 0.1 0.1 0 0.4 0 0.1 0.1 0.2 0.4 0.2 0.3-0.1 1.5-2.6 3.7-7.3 3.4-7.3 5.2-11.1 5.3-11.4 0.1 0.1 0.2 0.4 0.2 0.8 0.1 1-1.4 5-4.7 12 0.8-1.1 1.6-2 2.2-2.9 0.1-0.4 0.3-0.5 0.4-0.4 0.4-0.3 0.7-0.3 1 0 -1.2 3.1-2 5.6-2.4 7.3 1.5-2.6 3.1-6.1 4.9-10.4l-0.6 0.6c0-0.4 0.4-1.5 1.2-3.3 0.3 0.3 0.4 0.5 0.4 0.6 0.3-2.2 0.6-3.7 1-4.7 0.4 0.4 0.5 0.7 0.2 1 3.1-6 4.7-10.5 4.7-13.5 1.4-2.2 2-3.8 2-4.9 0-0.4-0.2-0.7-0.6-1 0.5-0.4 0.9-0.7 1-0.8 0.1-1.2 0.4-2 0.8-2.2l-0.2-1.4c-0.3-0.5-0.2-1.2 0.2-1.8l0.6 0.4c0.5-1.5 1-2.6 1.2-3.3 -0.5 0.7-1 1.1-1.4 1.2 0-1.6 0.4-2.7 1.2-3.1 0.3 0.4 0.4 0.8 0.4 1.2 2.6-9.4 4.6-14.6 5.9-15.5l0.6 0.6c0.3-0.3 0.7-0.4 1.4-0.4 0.1-1.1 0.5-2.2 1-3.3 0.3 0.1 0.3 0.3 0.2 0.4 -0.3 1.6-0.7 3.1-1.2 4.3 -0.3-0.3-0.3-0.4-0.2-0.4 0.4 0.4 0.6 0.8 0.6 1.2 0 0.4-0.2 1.2-0.7 2.3 -0.5 1.2-0.6 2-0.3 2.6 1.4-2.7 2.2-4.2 2.4-4.5l0.4 0.4c-0.1 1.6-0.2 2.9-0.2 3.7 1.2-2.6 2.2-4.2 2.9-4.9l0.4 0.4c-0.3 0.8-0.3 1.8-0.2 2.9 0.9-1.2 1.6-2.2 2-3.1 0.7 1 1.4 1.4 2 1.4 0.5-0.9 0.9-1.7 1-2.2 0.3 0.3 0.3 1.2 0.2 2.7 2-3.9 3.3-6.3 3.7-6.9 0.1 0.1 0.3 0.5 0.4 1 1.8-3.1 2.8-5 3.1-5.5 0.1 0.3 0.2 1 0.2 2.2l0.6-0.6c0.3 0.3 0.5 0.4 0.8 0.4 0.3 0 1.6-1.9 3.9-5.7 2.3-3.8 3.6-5.7 3.9-5.7h0.8 0.4l0.4-1.6c0-1.1 0.3-1.6 1-1.6 0.4 0 1.2 0.2 2.4 0.7 1.2 0.5 2 0.7 2.4 0.7 0.3 0 0.6-0.3 1-0.8 -0.1-0.8-0.1-1.3 0.2-1.4 0.8 1.1 1.2 2 1.2 2.7 0.1-1.6 0.3-2.9 0.6-3.7 0.4 1 0.7 1.7 0.8 2.2l-0.6 0.8h1.6c-0.1-2.9-0.1-4.6 0.2-5.3 0.8-1.5 1.3-2.4 1.4-2.7C317.8 67.7 317.6 66.8 317.6 66.5zM239.1 155.4l-0.4 1.2 0.4 0.2 0.4-1.4H239.1zM241.1 152.2l-0.4 1h0.4l0.4-0.8L241.1 152.2zM243.4 148.5l-0.4-0.2 2.2-7.5h0.4L243.4 148.5zM244.2 163.2l-0.8 1.6 0.6 0.2 0.6-1.6L244.2 163.2zM244.6 57.1c1.5-1.2 2.7-1.8 3.7-1.8 1.2-0.1 1.9 0.7 2 2.4 0.1 2.4-0.5 3.7-2 3.9 0.5 0-0.7-0.7-3.7-2.2V57.1zM246 161.8l-1.4 3.3h0.8l1.2-3.3H246zM245.8 139.9v-0.8h0.6v0.8H245.8zM246.8 125.1h-0.6l0.4-2h0.6L246.8 125.1zM247.4 123h-0.4l0.8-5.1h0.6L247.4 123zM248.3 157.3l-0.8 0.8 0.4 0.4 0.8-0.8L248.3 157.3zM248.5 66.1h-0.6v1h0.6V66.1zM249.7 61.2c-0.5 0.5-1 1.4-1.4 2.4 0.3-0.9 0.7-1.6 1.4-1.8l0.8 0.4C250.1 61.7 249.8 61.3 249.7 61.2zM250.5 73.6l-0.8 1.2 0.6 0.4 0.6-1.4L250.5 73.6zM250.7 89.8h-0.6v1h0.6V89.8zM250.5 69v-1h0.6v1H250.5zM251.5 85.9h-0.6l0.2 1h0.6L251.5 85.9zM252.3 66.3l-0.4-0.2 0.4-0.8 0.4 0.2L252.3 66.3zM252.1 64.3c0.4-1.2 0.9-2 1.6-2.2l0.2 1.8C253.6 63.6 253 63.7 252.1 64.3zM252.6 68.3l-0.4-0.2 0.4-0.8h0.2L252.6 68.3zM253 117.7l-0.4-0.2 0.4-1 0.6 0.2L253 117.7zM256.6 127.7l-0.4-0.2 0.4-2h0.6L256.6 127.7zM259.1 61c-0.1-1.4 1-2.1 3.5-2.2 0.9 0 1.8 0.5 2.4 1.4L259.1 61zM259.7 138.3v-0.8l0.6-0.2v0.8L259.7 138.3zM260.7 136.9l-0.4-0.2 1-3.1h0.4L260.7 136.9zM262.3 130.8v-0.8h0.6v0.8H262.3zM262.8 129.7l-0.2-0.8h0.6l0.2 0.8H262.8zM263.2 128.1v-1.2l0.6-0.2v1.2L263.2 128.1zM263.8 126.3l-0.2-1.2h0.6l0.2 1.2H263.8zM264.2 53.9c0-0.4 0.4-0.9 1.3-1.4 0.9-0.5 1.5-0.8 1.9-0.8 0.3 0 0.5 0.1 0.7 0.3 0.2 0.2 0.4 0.3 0.5 0.3 0.5-0.9 1.6-1.4 3.1-1.4 3.3-0.1 5 1.1 5.1 3.7 0.1 0.5 0 1.9-0.4 4.1L264.2 53.9zM264.8 90h-0.6l0.2-2.7h0.6L264.8 90zM264.4 124v-1h0.4v1H264.4zM265.4 90.2h-0.6l0.4-2.9h0.6L265.4 90.2zM269.1 110.2l-0.4-0.2 0.2-0.8 0.6 0.2L269.1 110.2zM269.5 108.7h-0.4l0.4-1.8h0.6L269.5 108.7zM270.1 105.1l-0.4-0.2 0.6-1.4h0.6L270.1 105.1zM271.1 103.2l-0.4 0.2v-1.8l0.6-0.2L271.1 103.2zM271.5 74.3l-0.6-0.2 0.4-1h0.6L271.5 74.3zM271.5 77.5v-1.2h0.6v1.2H271.5zM272.3 75.5h-0.4v-2.2h0.6L272.3 75.5zM274.6 97.3l-0.4 1.8 0.4 0.2 0.6-1.8L274.6 97.3zM277.6 70.2h-0.6l0.2 0.8h0.6L277.6 70.2zM285 63l-0.4 1 0.4 0.2 0.4-1.2H285zM295.6 91l-1.2 1 0.4 0.4 1.2-1.2L295.6 91zM298.7 86.9l-0.4-0.2 0.4-0.8h0.4L298.7 86.9zM300.3 47.7c-0.4 0.5-0.9 0.8-1.4 0.8 1.8-0.1 2.7 0.3 2.7 1.4C301.5 48.8 301.1 48 300.3 47.7zM311.3 80c0-0.4-0.1-0.7-0.4-0.8 0 1.1-0.1 1.7-0.4 1.8h0.6C311.2 80.6 311.3 80.2 311.3 80zM312.5 69.6l-0.4-2h0.6l0.4 1.8L312.5 69.6zM314.6 70.6c0.5 2 0.9 3.2 1 3.5 -1.2-2-1.9-3.2-2-3.5 0-0.3 0.1-0.6 0.2-1 0.1-0.4 0.2-0.7 0.2-0.8 0.5 0.4 1 0.6 1.2 0.6C315.2 69.5 315 69.9 314.6 70.6zM318 75.3h-0.4V76.5h0.4V75.3z"/><path d="M455.3 100.4c-2-0.3-3.8 0.2-5.3 1.4 -0.3 0.5-0.7 1.2-1.4 1.8 -1.2 1.1-2.5 2.1-3.9 3.1 -1.6 1.5-2.4 2.9-2.2 4.1 -1.8 1.8-5.7 5.2-11.8 10.2 -0.1 0.1-0.1 0.3 0.2 0.6 1.9-0.8 3.3-1.7 4.3-2.7l1.4 1.4c0 0.5-0.1 0.7-0.2 0.6l0.8 0.2c1.5 0 3.6-1.2 6.3-3.7l-3.7 3.1c0.1 0.1 0.6 0.3 1.4 0.4 1.2 0 3.5-0.9 6.7-2.7l-0.2 1.4c-0.7 1-1.7 2.1-3.1 3.5 -1.5 0.4-3.3 1.6-5.3 3.7 0.5 0.3 1.4 0.1 2.7-0.4 -0.4 0.4-1.1 0.9-1.9 1.5 -0.9 0.6-1.5 1.1-1.9 1.5l1 1.2c-1.9-0.3-2.9 0.2-2.9 1.4v1.4c-0.3 0-1.2 0.4-2.9 1.2 0 0.4 0.5 0.6 1.4 0.6 -3 1.9-6.2 3.9-9.6 5.9l-1.2 1.2c0 0.3 0.1 0.8 0.4 1.6 0.1 0.5 0.1 1.1-0.2 1.6l-5.7 4.1c-2.4 1.9-4.4 2.9-5.9 2.9 -3.4-0.1-5.1 0.5-5.1 2l-5.5-0.2c-0.4 0.1-0.7 0-0.8-0.3 -0.1-0.3-0.3-0.6-0.6-0.7 -0.5 0-3.1 0.7-7.8 2 -2.9 0.8-5.9 1.2-9.2 1 -7.9-0.4-15.4-2.9-22.4-7.3 -0.1-0.3-0.4-0.7-0.8-1.2 -2.6-1.4-3.7-2-3.3-2 -0.5 0-0.9 0.1-1 0.2l0.4-0.4v-0.2h-0.6l-1-1c-0.7-0.8-1.4-1.2-2-1 0.3 0.5 0.8 1.4 1.6 2.7 -1.1-1.1-2.5-2.8-4.3-5.1 0-0.7-0.1-1.6-0.4-2.9 -1.1-2.3-2.5-6-4.3-11 -0.7 0.1-1 0.5-1 1 0 0.8 0.1 1.2 0.2 1 0-0.5-0.3-1.1-0.8-1.6l-0.6 0.6c-0.8 4.8-2.9 12.2-6.1 22.4 0.3 0.4-0.3 0.6-1.8 0.6 -0.3 0-0.7-0.3-1.4-0.8 -0.7-0.5-1.3-0.8-1.8-0.8 0-0.4 0.3-0.9 0.8-1.4 -0.1-0.3-0.9-0.7-2.2-1.4 -1.4 1.8-3.6 4.7-6.7 8.8l-1.4-1.6c0.9-1.2 1.4-2 1.4-2.2 0-0.5-0.5-1.4-1.4-2.7 -0.5 0.3-1.7 1.7-3.5 4.3 -0.8-1.2-1.8-2.7-2.9-4.5 -0.1 0.1-1.6 1.2-4.5 3.3 -1.2-2.4-1.8-4.1-1.8-5.1 0.1-0.9 0.6-1.8 1.4-2.4 -0.1-0.3-0.4-0.6-0.8-1h-1c-0.4 0-0.6 0.2-0.6 0.6v-1.4c0.8-0.5 1.6-1.5 2.4-2.9 1.2-3.5 2.2-9.2 3.1-17.1 0.3-0.4 0.5-1.2 0.8-2.4 0.1-0.3 0.2-1.6 0.2-3.9 0-2.2-0.1-3.7-0.4-4.7l1.8-1.4 5.3-46.7c2.3-20.3 4.6-35.7 6.9-46.3 0.5-2.2 2.2-7.1 4.9-14.7 0.3-3.1 0.3-0.9 0.2 6.7l-0.6 12.6c0.5 0 1-0.3 1.4-1 0.8-5 2.7-12 5.5-21 0.9 0.4 2.1 1.4 3.5 2.9 0.5-0.4 1.6-0.5 3.3-0.4 0.1 0 0.4 0.1 0.8 0.2 0.4 0.1 0.7 0.2 1 0.2 0.4 0 0.6-0.1 0.6-0.4 0-0.3 0.2-0.3 0.6-0.2 0.3 0 0.5 0.1 0.8 0.4 0.3 0.3 0.6 0.4 1 0.4 1.4 0.1 2.2-0.6 2.4-2.2l2.2 4.9c-0.1 3.4-0.1 5.3 0.2 5.7 0.1 1.4 0 3.7-0.4 6.9 0.3 1 0.5 2.1 0.8 3.5l-8.2 64.7c-0.3 2.6 0.8 5.2 3.3 7.8 0.3 0.7 1.3 2.3 3.1 4.9 9.5-7.6 19.2-20.1 29-37.3 0.5 0.5 1.5 1.3 2.9 2.2 -0.5 2-1.2 3.7-1.8 4.9l-0.2 1.4c0.8 0.1 1.6-0.3 2.4-1.4l1.6-2.7c0.3 0.3 0.5 0.4 0.8 0.4 -0.1 2.2-0.3 3.5-0.4 3.9 1.1-0.8 1.9-1.8 2.4-2.9l-7.5 15.1c-2.6 5.3-5.6 9.9-9.2 13.9 -0.4 0.4-1.7 1.8-4 4.2 -2.2 2.4-3.4 3.7-3.4 4 0-0.4 0.6 0.7 1.8 3.3 -0.5-0.5-1.3-1.4-2.2-2.4 -0.7 0.3-1.4 1.2-2.2 2.9l0.8 0.4c0.4 0.1-0.3 0.2-2 0.2 -0.7 0.3-0.9 0.5-0.6 0.8 -0.8 0.3-1.9 1.3-3.3 3.1 1.8 1.9 4.5 3.3 8.2 4.3 8.2 2.2 12 3.3 11.4 3.3 0.7 0 2.7 0 6.1 0l5.9-0.2 0.6 0.8c4.5 0.3 14.9-4.8 31.2-15.1 -2.2 1.6-6.5 4.5-12.9 8.6 0 1 0.5 1.4 1.4 1.4l14.5-8c9.4-5.3 15-7.9 16.9-7.8 0.3 0 0.4 0.1 0.4 0.2 0 0.1 0.2 0.2 0.6 0.2 0.5 0.1 1.7-0.1 3.4-0.7 1.7-0.6 2.9-0.9 3.6-0.9C452.1 99.3 453.3 99.7 455.3 100.4zM333.9 10.6h-0.8l-1 5.7h0.6L333.9 10.6zM345.6 131h-0.8v-1h0.8V131zM347.6 131.2l-0.4-2 -0.8-0.2 0.4 2L347.6 131.2zM352.7 87.9l-2 1.6 -0.4-0.4 2-1.6L352.7 87.9zM361.3 108.5l-0.4-0.4 -2.9 2.4 0.4 0.6L361.3 108.5zM359 11h-0.8v-1h0.8V11zM359.6 91.8l-0.6-0.2 -0.4-1.4 0.6-0.2L359.6 91.8zM366.2 103.2l-0.4-0.2 -4.1 4.1 0.4 0.4L366.2 103.2zM363.9 145.9l-2-1 -0.2 0.6 2 1L363.9 145.9zM368.2 109.8h-1.2v-0.8h1.2V109.8zM372.1 63.2l-3.3 4.7 -0.6-0.4 3.3-4.9L372.1 63.2zM370.5 110l-0.2 0.6 -1.4-0.6v-0.6L370.5 110zM387.4 153.4c-4.9-0.7-8-1.2-9.4-1.4 -3.5-0.8-6.3-2-8.4-3.5h1.4c1.8 0.1 4.3 0.8 7.5 2 3.3 1.2 5.8 1.9 7.5 2C387 152.6 387.4 152.9 387.4 153.4zM372.5 111l-0.2 0.6 -1.4-0.6v-0.6L372.5 111zM377.2 64.7l-1.2 1.6 -0.4-0.6 1-1.4L377.2 64.7zM378.2 61.2l-0.8 1.6 -0.6-0.2 0.8-1.4H378.2zM378.2 89.6l-0.4-0.4 -1 1.4 0.4 0.4L378.2 89.6zM395.8 68.7c-1.6 3.1-4.2 7.8-7.8 13.9 -2.3 2.9-5.6 7.1-10 12.9L395.8 68.7zM386.2 77.9h-0.6l-1.8 3.9 0.4 0.4L386.2 77.9zM439.2 108.9l-0.2-0.6 -2.7 1.2v0.6L439.2 108.9zM457 100.4l-1.2-0.2v-0.6l1.2 0.2V100.4z"/><path d="M472.7 49c-1.5 0.7-3.1 1.8-4.7 3.3 -0.1-0.3-0.4-0.4-0.8-0.4 -1.6 0-2.8 1.6-3.5 4.7 2.9-1.5 4.8-2.9 5.9-4.1 -0.7 0.5-1 1.1-1 1.6 0 0.4 0.3 0.8 0.8 1.2 -0.4 0.1-2.8 1.3-7.1 3.5l0.2 0.4 -1-0.2 -0.6 0.6c1.5 0.4 2.7 0.6 3.7 0.6 -0.3 0.1-0.9 0.6-1.8 1.4 -0.7-0.3-1.7 0-3.1 0.9 -1.4 0.9-2 1.7-1.8 2.3 -0.1 0.1-1.2 1-3.1 2.4 -0.1 0.3-0.1 0.4 0.2 0.4 -0.1 0-0.4 0.1-0.8 0.2 -0.4 0.1-0.7 0.2-0.8 0.2 0.1 0 0.4-0.1 0.8-0.4 -1.4-0.3-2.7 0-3.9 0.8l-1.8 1.2h-1.2c-0.1 0.1-0.2 0.3-0.2 0.4 0 0.3 0.1 0.5 0.4 0.8 -0.1-0.1-0.3-0.1-0.6 0.2 -0.3 0.3-0.5 0.4-0.8 0.4 -0.3 0-0.3-0.1 0-0.4 0.1-0.3 0-0.4-0.4-0.4 -0.8 0-2.9 0.8-6.1 2.4l-4.9 2.4 -3.3 1c-1.4 0.7-2.2 1-2.4 1l-0.8 0.6c-2.3 0.5-3.5 1.4-3.5 2.4 0 1.1 0.8 2.4 2.4 4.1 0.1 1 0.5 2.4 1.2 4.3 2.2 0.3 3.4 0.4 3.7 0.4 0.3 0 0.4-0.1 0.4-0.2 0-0.1 0.1-0.2 0.4-0.2 0.3 0 0.6 0.2 0.9 0.5 0.3 0.3 0.6 0.5 0.9 0.5 1.1 0 2.6 0.2 4.6 0.6 2 0.4 3.4 0.6 4.4 0.6 1.9 0.1 3.5 0.5 4.9 1l0.8-0.8c2.2 0.5 5.6 2.2 10.2 5.1l-0.4 0.2c0.3 0.8 1 1.9 2.2 3.3h1c0.4 0 0.5-0.1 0.4-0.2l2.4 2.7c-0.1 0.1-0.2 0.4-0.3 0.7 -0.1 0.3-0.2 0.6-0.3 0.7 4.5 3 6.7 4.8 6.7 5.5 0 0.5-0.1 1.4-0.3 2.6 -0.2 1.2-0.3 2-0.3 2.6 0 0.8 0.1 1.8 0.2 2.9 -0.4-0.3-0.7-0.4-1-0.4 0.3-0.7 0.4-1.4 0.4-2.2s-0.1-1.8-0.4-2.9c-1 5.6-1.8 9.7-2.4 12.2 -1.4 4.9-3.3 9-5.9 12.2 -0.1 0.3-0.5 0.8-1 1.6l0.4-0.6 -0.6-0.6c-0.4 0.5-1 1.2-1.8 2 0.1 0.1 0.3 0.3 0.6 0.4l1-0.6c-0.1 0.7-0.5 1.5-1.2 2.4 -1.1 0.5-2.7 1.5-4.7 2.9 -0.5-1.2-1.2-1.8-1.8-1.8 -0.1 0.1-1.2 0.5-3.1 1 -0.3 0.4-0.1 0.6 0.4 0.6 -0.7 1.4-1.6 2-2.7 2 -0.3 0-0.4-0.1-0.4-0.2 0-0.1-0.1-0.2-0.4-0.2 -0.3 0-0.6 0.2-1.1 0.5 -0.5 0.3-0.9 0.5-1.1 0.5 -0.1-0.3-0.4-0.6-0.8-1 -0.1 0.1-0.3 0.3-0.6 0.5 -0.3 0.2-0.5 0.4-0.6 0.5 0.7 0 1.2 0.1 1.4 0.4 -0.4 0-1.1-0.1-1.9-0.2 -0.9-0.1-1.5-0.2-1.9-0.2 0.4 0 0.7-0.1 1-0.4 -0.4-0.4-0.7-0.6-0.8-0.6 -0.5 0-1 0.2-1.4 0.6l1 1.2c-0.3-0.3-0.5-0.4-0.8-0.4l-0.4 0.6c0.4 0.4 0.7 0.6 1 0.6 -4.1 1.4-5.6 2-4.7 2l-1.2-0.4c-0.3 0-0.9 0.4-1.9 1.1 -1 0.7-1.7 1.1-1.9 1.1 -0.7 0-1.7 0.1-3.1 0.2 -1.4 0.1-2.4 0.2-3.1 0.2 -0.3 0-0.8-0.4-1.6-1.2 -0.1 0.3-0.1 0.6 0.2 1 -1.2 0.4-2.9 0.9-5.1 1.4 -9.8 1.2-16.7 1.8-20.8 1.8h-2c-0.8 0-2.4-0.5-4.9-1.4 -0.1 0-0.3-0.1-0.6-0.2h-1c-0.4 0-0.5 0.1-0.4 0.3 0.1 0.2 0.1 0.3-0.2 0.3 -0.3 0-0.6-0.1-1-0.4 -0.4-0.1-0.9-0.1-1.4 0 0.7 0.7 1.3 1 1.8 1h-0.8c-0.7 0.1-1.2 0.2-1.4 0.2 -0.3 0-0.6-0.2-1.1-0.7 -0.5-0.5-0.9-0.7-1.3-0.7 -0.7 0-1 0.3-1 1l-1.4-0.6c-1-0.4-1.4-0.7-1.4-1 0-0.1 0.1-0.3 0.2-0.4 -0.1-0.3-0.5-0.4-1.2-0.4h-0.8c-0.1 0.1-0.3 0.2-0.6 0.2 0.4 0-2-0.7-7.3-2.2 -1.6-0.5-8.6-1.8-20.8-3.7 0.4 0 0.6-0.3 0.6-0.8 3.8 1.4 6.7 2 8.6 2 0.7 0 1.2-0.1 1.4-0.4 -2.6-1.1-4.4-1.6-5.3-1.6 -0.3 0-0.4 0.1-0.5 0.2 -0.1 0.1-0.2 0.2-0.5 0.2 -0.1-0.3-0.6-0.6-1.4-1 -2-1.1-3.9-1.6-5.7-1.6 0-0.3 0.1-0.5 0.2-0.8 -1.4-1.1-3.2-2.7-5.5-4.9 -0.1-0.4 0-1.4 0.4-3.1 -0.3-0.1-0.6-0.6-1-1.4h1.2c-0.1 0 0 0.2 0.4 0.6l0.6-0.6c-0.4-0.1-1.6-0.8-3.5-2 -0.1-0.4-0.5-1-1.2-1.8 0.4-0.9 1.2-1.7 2.2-2.2 0-0.4-0.5-0.6-1.4-0.6 0.4-0.8 1.4-1.4 2.9-1.6 -0.1-1.4 0-2.2 0.4-2.4 1.6 0.4 4.2 0.9 7.8 1.4l0.6 0.6c0.4 0 1.1 0.3 2 0.8 0.3-0.3 0.4-0.7 0.4-1.2 2.3 1.2 4 1.8 5.1 1.8 0.7 0 1-0.5 1-1.4 0.1 0.3 0.4 0.4 0.8 0.4 0.5 0 0.8-0.3 0.8-0.8 0.7 0.4 1.6 0.9 2.7 1.4 4.1 0.8 7 1.2 8.8 1.2 0.3 0 0.5-0.1 0.6-0.4 0.1-0.3 0.3-0.4 0.6-0.4 0.3 0 0.5 0.2 0.7 0.7 0.2 0.5 0.4 0.7 0.7 0.7 0.8 0 2 0.2 3.6 0.5 1.6 0.3 2.8 0.5 3.6 0.5 5.4 0 11.2-0.2 17.1-0.6 -0.1-0.1-0.5-0.2-1-0.2 2.6-0.3 6.1-0.7 10.4-1.4 9-0.3 18.9-1.8 29.8-4.5 0.5-0.4 0.8-0.7 0.8-0.8 1.4-0.1 2.8-0.7 4.3-1.8 0-0.8-0.3-1.2-0.8-1.2h-0.8l1.2-0.6c-0.3-0.3-0.7-0.4-1.4-0.4 0.8-0.1 2.9-1.2 6.1-3.1l-8-1.8c1.6 0.5 2.9 0.8 3.9 0.8h5.1v-1.4c-4.5-0.5-9.6-1.5-15.3-2.9l-1.2 0.2c0.7 0.7 1 1.1 1 1.2 -1.4-0.5-2.5-0.8-3.5-0.8 0.1 0 0.3-0.1 0.6-0.4 -0.3-0.4-0.8-0.6-1.6-0.6 -0.7 0-1.2 0.1-1.6 0.4 -0.3 0.1-0.1 0.7 0.4 1.6 -0.7-0.1-2.8-1.4-6.3-3.9 -0.4 0.4-0.5 0.7-0.2 1 -0.7-0.4-1.4-0.6-2-0.6 -1.4 0-2.2 1.3-2.7 3.9 -0.8-0.4-1.6-0.6-2.4-0.6 -0.3 0-0.7 0.1-1.3 0.2 -0.6 0.1-1.1 0.2-1.3 0.2 -0.3 0.3-0.2 0.8 0.2 1.6 -1.6-0.1-2.9 0.1-3.9 0.8 0.3-0.8 0.1-1.8-0.6-2.9 -0.8 0.1-1.7 1.4-2.7 3.9 0.1-0.9 0.1-1.6-0.2-2h-1c-0.1 0.4-0.2 0.8-0.2 1.2 0 0.4 0.1 0.8 0.2 1.2 -0.5-0.1-1.2 0-1.8 0.4 -0.1-0.7-0.4-1.6-0.8-2.7 -0.5 0.7-1.4 1.3-2.7 1.8 0.3-0.5 0.8-1.1 1.6-1.6 0.1-1.1 0.4-2.2 0.8-3.5l-0.2-1.6c-0.3 0.3-0.4 0.5-0.4 0.8 0 0.1 0.1 0.3 0.2 0.4 -0.3 0.1-0.6 0.4-1 0.8 -0.7-0.5-1-1.2-0.8-2 0.1-1.1 0.1-2 0-2.7 -1.9 0.8-2.7 2.7-2.4 5.5 0-0.1-0.1-0.3-0.3-0.4 -0.2-0.1-0.3-0.3-0.3-0.6 0-0.8 0.9-2.9 2.9-6.1l-0.2-1.6c-0.4 0-0.8 0.5-1.2 1.6 -0.1-0.3-0.5-0.7-1.2-1.4 -1 0.4-1.4 1.1-1.4 2 -0.4-0.4-0.7-0.6-1-0.6h-0.6c-0.1 0.1-0.3 0.2-0.4 0.2 1.8-2.2 2.7-3.7 2.7-4.5 0-0.4-0.1-0.7-0.3-0.8 -0.2-0.1-0.3-0.3-0.3-0.6h-0.8c-1.1 0-2 0.7-2.7 2 -0.1 0-0.4-0.1-0.9-0.4 -0.5-0.3-0.9-0.4-1.1-0.4 0.4-3.8 4.2-12.4 11.4-25.9 2.7-2.9 5.9-7 9.6-12.4v1.4c1.5-1.5 3.7-3.5 6.5-5.9 2.2-1.4 3.6-2.3 4.3-2.9 1.9-1.5 2.9-2.7 3.1-3.7 2 0 5.8-1.6 11.4-4.7l8-4.5c3.9-1.4 6.2-2.7 6.7-4.1 0.1 0.1 0.4 0.2 0.8 0.2 0.7 0 2.2-0.7 4.5-2.2 -0.4-0.4-0.7-0.6-1-0.6l0.8-1c0.1 0 0.2 0.2 0.3 0.7 0.1 0.5 0.3 0.7 0.7 0.7s0.8-0.2 1.2-0.6c-0.3 0 0.1 0.5 1 1.4 0.7-0.3 1.7-0.7 3.1-1.4v2.4c-0.5-0.1-1-0.1-1.2 0v0.6L456.1 35.7c-0.4-0.1-0.7-0.2-0.8-0.2l-0.2 2c2 0 3.3-0.8 3.7-2.4 3.4-1.6 5.5-2.2 6.3-1.8 0 0.3-0.2 0.7-0.6 1.2 0.1 0.1 0.4 0.2 0.8 0.2 0.3-0.7 0.4-1.6 0.4-2.7l1.8 1.2c0.3 1.4 0.4 2.2 0.4 2.7 0 0.1-0.2 0.5-0.7 1.1 -0.5 0.6-0.7 1.1-0.7 1.5 0 0.3 0.2 0.9 0.6 1.8 0.1-0.3 0.2-0.7 0.2-1.4 0.1 0 0.3-0.1 0.6-0.4 0.3-0.3 0.6-0.4 1-0.4 0.3 0 0.3 0.1 0.2 0.4 -0.1 0.3-0.1 0.4 0.2 0.4 0.4 0 0.8-0.1 1.1-0.4 0.3-0.3 0.6-0.4 0.7-0.4 0 0.3-0.1 0.7-0.2 1.4V40.8c0.8 1 1.2 1.8 1.2 2.4 -0.1 0.4-0.7 2.4-1.6 6.1 0-0.8 0.1-1.3 0.4-1.4v-1.2c-0.1-0.3-0.3-0.4-0.6-0.4l-1 3.1c0.1 0.1 0.5 0.2 1 0.2 0.5 0 1-0.3 1.4-1C472.3 48.8 472.5 49 472.7 49zM338 134.8h-1v-0.6h1V134.8zM344.6 145.7l-1.8-0.4v-0.6l1.8 0.4V145.7zM358.4 146.7v-0.6h-1.2v0.6H358.4zM358.8 143.4v-0.6h-1v0.6H358.8zM359.9 144.8v-0.6h-0.8v0.6H359.9zM361.3 145.2v-0.6h-1.2v0.6H361.3zM361.1 147.5v-0.6h-1v0.6H361.1zM361.3 144.2v-0.6h-0.8v0.6H361.3zM363.1 144.6v-0.6h-1.2v0.6H363.1zM365 146.1v-0.6l-2.4-0.4v0.6L365 146.1zM364.5 138.7v-0.6h-0.8v0.6H364.5zM365.4 144.8v-0.6h-1.6v0.6H365.4zM365.6 148.5V147.9l-1.8-0.4v0.6L365.6 148.5zM367.4 146.7v-0.6l-2.2-0.4v0.6L367.4 146.7zM368.6 139.5v-0.6h-1v0.6H368.6zM369.6 146.7v-0.6h-1.4v0.6H369.6zM371.1 139.9v-0.6h-2v0.6H371.1zM371.5 147.1v-0.6h-1v0.6H371.5zM371.5 149.1v-0.6h-1v0.6H371.5zM372.9 149.1v-0.6h-1v0.6H372.9zM378.6 146.7v-0.6l-5.9-0.4v0.6L378.6 146.7zM378.2 147.7v-0.6l-5.5-0.2v0.6L378.2 147.7zM374.9 149.5v-0.6h-2v0.6H374.9zM379.6 150.3v-0.6l-3.9-0.8v0.6L379.6 150.3zM380.7 149.9v-0.6h-0.8v0.6H380.7zM381.9 153l-1.6-0.8 -0.2 0.6 1.6 0.8L381.9 153zM383.7 147.1v-0.6h-1.8v0.6H383.7zM386.2 143v-0.6h-3.1v0.6H386.2zM386.2 150.3v-0.6h-2.4v0.6H386.2zM425.1 151c-0.5 0-1.4-0.1-2.5-0.2 -1.2-0.1-2-0.2-2.6-0.2 -0.3 0-0.5 0.2-0.8 0.5 -0.3 0.3-0.5 0.5-0.8 0.5 -0.3 0-0.5-0.1-0.8-0.3 -0.3-0.2-0.5-0.3-0.6-0.3 -1.6 0-3.2 0.3-4.7 1l-0.8-0.8c-1.1 0.1-2.7 0.5-4.9 1.2 0.3-0.3 0.4-0.5 0.4-0.8h-2.4c0 0.3-0.1 0.5-0.2 0.8 -0.4-0.4-0.8-0.6-1.2-0.6 0.4 0.4 0.5 0.7 0.4 0.8 -1.1-0.3-2-0.4-2.9-0.4 0.7 0 0.8 0.1 0.4 0.4h-1c-0.4-0.4-1.2-0.6-2.4-0.6h-5.1c-0.4 0.1-1.8 0.2-4.3 0.2h-2.9c0.5 0 1.4 0.3 2.6 0.9 1.2 0.6 1.9 0.9 2.1 0.9 0.3 0 0.7-0.1 1.2-0.3 0.5-0.2 0.9-0.3 1.2-0.3 0.3 0 0.3 0.1 0 0.4 -0.1 0.1-0.1 0.2 0.2 0.2 0.5 0 1.3-0.1 2.2-0.3 0.9-0.2 1.6-0.3 2-0.3 0.5 0.4 0.9 0.6 1 0.6 3.4 0 5.8-0.1 7.1-0.4 0-0.7 0.1-1.1 0.2-1.2 0.1 0 0.2 0.2 0.2 0.5 0 0.3 0.2 0.5 0.6 0.5 0.5 0 0.7-0.1 0.6-0.4l0.6 0.8c2.9 0 5.6-0.4 8.2-1.2 -0.3 0.3-0.1 0.4 0.6 0.4 1.2 0 2.6-0.4 4.1-1.2 0 0.3 0.5-0.1 1.4-1l0.2 0.6c0.1 0.4 0.4 0.6 0.8 0.6 0.3 0 0.7-0.2 1.3-0.5C424.6 151.1 425 151 425.1 151zM387.6 147.1v-0.6h-2v0.6H387.6zM388.4 150.1l-1.4-0.4v0.4l1.2 0.4L388.4 150.1zM390.9 126.9h-1v-0.6h1V126.9zM391.1 80.2l-0.6 1.4 -0.4-0.2 0.4-1.2H391.1zM392.1 77.3l-0.8 2.4 -0.6-0.2 0.8-2.2H392.1zM392.1 98.1v-1h-0.6v1H392.1zM394.1 150.3v-0.6h-2v0.6H394.1zM394.1 100l-0.2-0.6 -0.8 0.4v0.6L394.1 100zM400 147.5v-0.6h-5.1v0.6H400zM396.2 150.3v-0.6h-1v0.6H396.2zM397.6 150.3v-0.6h-1v0.6H397.6zM399.4 128.3v-0.6h-2.4v0.6H399.4zM399.4 150.3v-0.6h-1v0.6H399.4zM403.3 128.3v-0.6l-3.5-0.2v0.6L403.3 128.3zM401.9 150.3v-0.6h-2v0.6H401.9zM400.9 151.4v-0.6h-1v0.6H400.9zM401.7 157.3l-0.2 0.6 -1-0.6 0.2-0.4L401.7 157.3zM404.1 156.5h-2v-0.8h2V156.5zM403.3 150.3v-0.6h-0.8v0.6H403.3zM404.9 59.6l-1.2 1.2 -0.4-0.4 1.2-1.2L404.9 59.6zM406 151.4v-0.6h-2.4v0.6H406zM405.5 150.3v-0.6h-1.6v0.6H405.5zM409 147.1v-0.6h-1.2v0.6H409zM410.2 156.5c-0.8 0-1.4 0.1-1.6 0.4l0.8-1C409.6 156 409.8 156.2 410.2 156.5zM409.6 145.9l-0.6-0.4 -0.2 0.4 0.4 0.4L409.6 145.9zM418.4 155c-1.9 0.4-3.7 0.6-5.3 0.6 2.6-0.8 3.7-1.2 3.3-1.2C417 154.4 417.7 154.6 418.4 155zM416 150.6v-0.6h-1.4v0.6H416zM416.4 149.5v-0.6h-1.4v0.6H416.4zM417.4 145.7v-0.6h-1.4v0.6H417.4zM422.5 154.2h-1.8v-0.6h1.8V154.2zM423.9 153.6h-1.4V153h1.4V153.6zM426.8 150.3h-2.7c0.9 0 1.7 0.3 2.2 0.8C426.4 151 426.5 150.8 426.8 150.3zM430.2 151.4v-0.6h-0.8v0.6H430.2zM432.5 148.9v-0.6h-1v0.6H432.5zM433.1 147.7v-0.6h-1.2v0.6H433.1zM433.3 149.5l-0.2-0.6 -1.2 0.4v0.6L433.3 149.5zM434.5 147.5v-0.6h-1.2v0.6H434.5zM435.3 111.6h-1v-0.6h1V111.6zM438.6 117.1l-1 0.4v-0.4l0.8-0.4L438.6 117.1zM440 149.7l-1.2 0.8 -0.2-0.4 1.2-0.8L440 149.7zM442.1 146.1v-0.6h-1.2v0.6H442.1zM444.9 147.5h-0.8v-0.6h0.8V147.5zM448.6 138.1v-0.6h-1v0.6H448.6zM448.6 144l-0.2-0.4 -0.8 0.4v0.4L448.6 144zM451.2 136.9l-0.2-0.4 -2.2 0.6v0.6L451.2 136.9zM450.2 150.1l-1.2 0.4v-0.4l1-0.4L450.2 150.1zM457.6 96.7c-0.5-1.1-3.2-2.3-8-3.7 -0.1 0.1-0.2 0.7-0.2 1.8C452.4 95.1 455.1 95.7 457.6 96.7zM450.4 139.1v-0.6h-1v0.6H450.4zM458.4 139.5c-1.6 0.1-2.9 1.2-3.9 3.1 -0.1-0.3-0.4-0.4-0.8-0.4 0 0.3 0.1 0.7 0.4 1.2C456.1 142.5 457.6 141.2 458.4 139.5zM460.2 65.5l-4.3 1.8v-0.4l4.1-2L460.2 65.5zM458.4 97.7l-2-0.8v0.6l1.8 0.6L458.4 97.7zM459.2 100.6l-1.2-1.8 -0.4 0.4 1.2 1.6L459.2 100.6zM458.6 147.1h-0.8v-0.6h0.8V147.1zM461.9 100.6c-1.2 0.7-1.8 1.2-1.6 1.6 0.5 0.5 1 0.8 1.2 0.8 0-0.3 0.1-0.7 0.2-1.2C461.8 101.3 461.9 100.8 461.9 100.6zM461.2 65.3h-1v-0.6h1V65.3zM462.7 137.5l-1.6 1.6 -0.2-0.4 1.6-1.6L462.7 137.5zM462.7 42.4l-0.2-0.4 -1.2 0.8 0.2 0.4L462.7 42.4zM462.7 62.6l-1 0.8 -0.4-0.6 1.2-0.8L462.7 62.6zM464.1 56.9h-1.4l-0.6 0.8C462.9 57.7 463.6 57.5 464.1 56.9zM464.5 103c-0.5-0.4-1.2-1.1-2-2 0.1 0.3 0.2 0.5 0.2 0.8 0 0.4-0.1 0.7-0.4 1 1.1 1.1 1.6 1.6 1.6 1.4C463.9 103.7 464.1 103.3 464.5 103zM466.5 39.4c-0.7-0.1-1.4-0.5-2.2-1.2 -0.3-0.3-0.5-0.4-0.6-0.4v1.2c-0.1 0.5-0.2 0.9-0.2 1 0.1-0.1 0.3-0.3 0.4-0.6 0.1-0.3 0.3-0.5 0.4-0.6 0.3 0.8 0.1 1.6-0.4 2.2l-0.8 1C465 41.8 466.1 40.9 466.5 39.4zM464.7 59.4h-1.2v-0.6h1.2V59.4zM466.3 58.5l-1 0.6v-0.6l0.8-0.4L466.3 58.5zM466.8 134.6h-0.6l-0.4-0.8 0.6-0.2L466.8 134.6zM467.8 42.4l-0.4-0.4 -0.8 0.8 0.4 0.4L467.8 42.4zM468.2 49.6v-1.2h-0.6v1.2H468.2zM470.2 44.1v-4.1c-0.3-0.3-0.7-0.4-1.4-0.4 0 0.3-0.1 0.6-0.4 1 -0.3 0.4-0.4 0.8-0.4 1.2l0.6 0.6v2.9C469 45 469.5 44.6 470.2 44.1zM469.6 46.1l-0.2-0.6 -1.2 0.4v0.6L469.6 46.1zM470 118.5H469.4v-1h0.6V118.5zM472.3 22.2l-0.8 0.8h-1.8v-2.4l1.4-1.4C471.3 19.3 471.7 20.3 472.3 22.2zM471 119.5h-0.6l-0.4-0.8 0.6-0.2L471 119.5zM487.8 33.5c0 1-0.7 2.2-2 3.7l-2.4 2c-0.3-0.3-0.9-1.1-1.8-2.4 -0.4 0.3-1.4 0.1-3.1-0.6 0.8-0.5 1.3-1.1 1.4-1.6 -2.4-0.7-4.1-2.8-5.1-6.3l-1.4 1.4 -2.4-2.4c1.1-1.8 1.9-2.7 2.4-2.7l0.6 0.8c0.1-0.8 0.5-1.9 1-3.3 1.6-2.4 3.7-3.7 6.1-3.7 0.3 0 0.9 0.2 2 0.6 1.1 0.4 1.9 0.6 2.4 0.6 0.1 0.5 0.1 1.2-0.2 1.8 1.6 1.6 2.4 2.9 2.4 3.9 0 0.5-0.8 2.2-2.4 5.1C486.9 31.3 487.8 32.4 487.8 33.5zM473.5 124.4l-0.4 1.4 -0.4-0.2 0.4-1.2H473.5zM503.7 43.2c-1.9 1.4-4.8 3.3-8.8 5.7 -1.1 1-2.6 2.2-4.5 3.9 -0.1 0-0.4-0.1-0.8-0.4C491.6 49.3 496.3 46.2 503.7 43.2zM505.1 37.9c0 0.3-0.1 0.6-0.2 1 -0.1 0.4-0.2 0.7-0.2 1 -0.7-0.1-1.4 0-2 0.4 -0.5-0.7-0.8-1.1-0.8-1.2 0-0.3 0.1-0.8 0.4-1.5 0.3-0.7 0.4-1.3 0.4-1.5 0.5-0.1 1.4-0.1 2.4 0V37.9z"/></svg>